<svg width="58" height="58" viewBox="0 0 58 58" fill="none" xmlns="http://www.w3.org/2000/svg">
<g filter="url(#filter0_d_209_354)">
<path d="M53.9875 33.2127L51.6046 17.2035C51.566 12.5548 48.7442 8.24427 43.8466 5.36479C39.7903 2.98012 34.5177 1.66675 29 1.66675C23.4822 1.66675 18.2095 2.98012 14.1532 5.36479C9.25575 8.24427 6.43378 12.5548 6.39531 17.2035L4.0124 33.2127C4.0042 33.2681 4 33.324 4 33.3801C4 38.0875 7.1371 42.4467 12.607 45.3401C17.0851 47.7087 22.9069 49.0132 29 49.0132C35.093 49.0132 40.9149 47.7087 45.393 45.3401C50.8628 42.4467 54 38.0875 54 33.3801C53.9999 33.324 53.9958 33.2681 53.9875 33.2127ZM15.3056 7.32504C19.0179 5.14262 23.8813 3.94067 29 3.94067C34.1187 3.94067 38.9821 5.14262 42.6943 7.32504C46.913 9.80531 49.3327 13.4411 49.3327 17.3C49.3327 21.1589 46.9131 24.7946 42.6944 27.275C38.9821 29.4574 34.1187 30.6594 29 30.6594C23.8814 30.6594 19.0179 29.4574 15.3057 27.275C11.087 24.7947 8.66728 21.1589 8.66728 17.3C8.66728 13.4411 11.0869 9.8054 15.3056 7.32504ZM44.3297 43.33C40.1733 45.5286 34.7291 46.7393 29 46.7393C23.2709 46.7393 17.8266 45.5286 13.6703 43.33C9.00312 40.8612 6.3121 37.2682 6.27431 33.4613L7.83964 22.9452C9.14354 25.3844 11.294 27.5538 14.1534 29.235C18.2097 31.6196 23.4823 32.933 29 32.933C34.5177 32.933 39.7905 31.6196 43.8467 29.235C46.7061 27.5538 48.8566 25.3843 50.1605 22.9452L51.7258 33.4613C51.6879 37.2683 48.9969 40.8613 44.3297 43.33Z" fill="#F1CDB3"/>
<path d="M29.0001 28.3849C36.7945 28.3849 43.6732 25.369 46.1164 20.8808C46.7417 19.7337 47.0589 18.5288 47.0589 17.3C47.0589 14.2231 45.0995 11.3767 41.5418 9.28522C38.1737 7.30534 33.7197 6.21501 29.0001 6.21501C24.2805 6.21501 19.8264 7.30544 16.4584 9.28532C12.9006 11.3768 10.9412 14.2231 10.9412 17.3001C10.9412 18.529 11.2583 19.7338 11.8834 20.8803C14.327 25.369 21.2056 28.3849 29.0001 28.3849ZM29.0001 26.1111C22.4622 26.1111 16.5235 23.7622 14.2131 20.334C16.5244 16.9077 22.464 14.5611 29.0001 14.5611C35.5362 14.5611 41.4759 16.9077 43.7872 20.3341C41.4771 23.7622 35.5382 26.1111 29.0001 26.1111ZM13.2149 17.3001C13.215 15.0621 14.7761 12.9119 17.6106 11.2455C20.6348 9.46784 24.6795 8.48884 29 8.48884C33.3204 8.48884 37.3653 9.46784 40.3894 11.2456C43.2239 12.9119 44.7851 15.062 44.7851 17.3001C44.7851 17.4995 44.7716 17.6984 44.7467 17.8968C41.611 14.475 35.6382 12.2873 29 12.2873C22.3618 12.2873 16.3891 14.4751 13.2534 17.8968C13.2282 17.6989 13.2153 17.4996 13.2149 17.3001Z" fill="#F1CDB3"/>
<path d="M29 34.8085C28.8462 34.8085 28.6941 34.8397 28.5527 34.9002C28.4113 34.9607 28.2837 35.0492 28.1775 35.1604C27.4369 35.9363 25.0208 38.6139 25.0208 40.4931C25.0208 42.6872 26.8059 44.4723 29 44.4723C31.1941 44.4723 32.9792 42.6872 32.9792 40.4931C32.9792 38.6139 30.563 35.9363 29.8225 35.1604C29.7163 35.0492 29.5887 34.9607 29.4473 34.9002C29.3059 34.8397 29.1538 34.8085 29 34.8085ZM29 42.1985C28.0597 42.1985 27.2946 41.4335 27.2946 40.4932C27.2946 39.9884 28.0882 38.7687 29 37.6618C29.9119 38.7689 30.7054 39.9884 30.7054 40.4932C30.7054 41.4335 29.9403 42.1985 29 42.1985Z" fill="#F1CDB3"/>
<path d="M23.9036 19.9148H23.5531C22.9252 19.9148 22.4162 20.4238 22.4162 21.0517C22.4162 21.6797 22.9252 22.1887 23.5531 22.1887H23.9036C24.5315 22.1887 25.0405 21.6797 25.0405 21.0517C25.0405 20.4238 24.5315 19.9148 23.9036 19.9148Z" fill="#F1CDB3"/>
<path d="M37.395 19.9148H29.285C28.657 19.9148 28.148 20.4238 28.148 21.0517C28.148 21.6797 28.657 22.1887 29.285 22.1887H37.395C38.0229 22.1887 38.5319 21.6797 38.5319 21.0517C38.5319 20.4238 38.0229 19.9148 37.395 19.9148Z" fill="#F1CDB3"/>
</g>
<defs>
<filter id="filter0_d_209_354" x="0" y="0" width="58" height="58" filterUnits="userSpaceOnUse" color-interpolation-filters="sRGB">
<feFlood flood-opacity="0" result="BackgroundImageFix"/>
<feColorMatrix in="SourceAlpha" type="matrix" values="0 0 0 0 0 0 0 0 0 0 0 0 0 0 0 0 0 0 127 0" result="hardAlpha"/>
<feOffset dy="4"/>
<feGaussianBlur stdDeviation="2"/>
<feComposite in2="hardAlpha" operator="out"/>
<feColorMatrix type="matrix" values="0 0 0 0 0 0 0 0 0 0 0 0 0 0 0 0 0 0 0.25 0"/>
<feBlend mode="normal" in2="BackgroundImageFix" result="effect1_dropShadow_209_354"/>
<feBlend mode="normal" in="SourceGraphic" in2="effect1_dropShadow_209_354" result="shape"/>
</filter>
</defs>
</svg>
