<svg width="0" height="0" class="hidden">
  <symbol fill="none" xmlns="http://www.w3.org/2000/svg" viewBox="0 0 14 6" id="arrow-left">
    <path d="M14 2V4H3V6L0 3L3 0V2H14Z" fill="#292929"></path>
  </symbol>
  <symbol fill="none" xmlns="http://www.w3.org/2000/svg" viewBox="0 0 14 6" id="arrow-right">
    <path d="M0 4V2L11 2V0L14 3L11 6V4L0 4Z" fill="#292929"></path>
  </symbol>
  <symbol fill="none" xmlns="http://www.w3.org/2000/svg" viewBox="4 1 50 50" id="bowls-and-cups">
	<path d="M53.9875 33.2127L51.6046 17.2035C51.566 12.5548 48.7442 8.24427 43.8466 5.36479C39.7903 2.98012 34.5177 1.66675 29 1.66675C23.4822 1.66675 18.2095 2.98012 14.1532 5.36479C9.25575 8.24427 6.43378 12.5548 6.39531 17.2035L4.0124 33.2127C4.0042 33.2681 4 33.324 4 33.3801C4 38.0875 7.1371 42.4467 12.607 45.3401C17.0851 47.7087 22.9069 49.0132 29 49.0132C35.093 49.0132 40.9149 47.7087 45.393 45.3401C50.8628 42.4467 54 38.0875 54 33.3801C53.9999 33.324 53.9958 33.2681 53.9875 33.2127ZM15.3056 7.32504C19.0179 5.14262 23.8813 3.94067 29 3.94067C34.1187 3.94067 38.9821 5.14262 42.6943 7.32504C46.913 9.80531 49.3327 13.4411 49.3327 17.3C49.3327 21.1589 46.9131 24.7946 42.6944 27.275C38.9821 29.4574 34.1187 30.6594 29 30.6594C23.8814 30.6594 19.0179 29.4574 15.3057 27.275C11.087 24.7947 8.66728 21.1589 8.66728 17.3C8.66728 13.4411 11.0869 9.8054 15.3056 7.32504ZM44.3297 43.33C40.1733 45.5286 34.7291 46.7393 29 46.7393C23.2709 46.7393 17.8266 45.5286 13.6703 43.33C9.00312 40.8612 6.3121 37.2682 6.27431 33.4613L7.83964 22.9452C9.14354 25.3844 11.294 27.5538 14.1534 29.235C18.2097 31.6196 23.4823 32.933 29 32.933C34.5177 32.933 39.7905 31.6196 43.8467 29.235C46.7061 27.5538 48.8566 25.3843 50.1605 22.9452L51.7258 33.4613C51.6879 37.2683 48.9969 40.8613 44.3297 43.33Z" fill="#F1CDB3"></path>
	<path d="M29.0001 28.3849C36.7945 28.3849 43.6732 25.369 46.1164 20.8808C46.7417 19.7337 47.0589 18.5288 47.0589 17.3C47.0589 14.2231 45.0995 11.3767 41.5418 9.28522C38.1737 7.30534 33.7197 6.21501 29.0001 6.21501C24.2805 6.21501 19.8264 7.30544 16.4584 9.28532C12.9006 11.3768 10.9412 14.2231 10.9412 17.3001C10.9412 18.529 11.2583 19.7338 11.8834 20.8803C14.327 25.369 21.2056 28.3849 29.0001 28.3849ZM29.0001 26.1111C22.4622 26.1111 16.5235 23.7622 14.2131 20.334C16.5244 16.9077 22.464 14.5611 29.0001 14.5611C35.5362 14.5611 41.4759 16.9077 43.7872 20.3341C41.4771 23.7622 35.5382 26.1111 29.0001 26.1111ZM13.2149 17.3001C13.215 15.0621 14.7761 12.9119 17.6106 11.2455C20.6348 9.46784 24.6795 8.48884 29 8.48884C33.3204 8.48884 37.3653 9.46784 40.3894 11.2456C43.2239 12.9119 44.7851 15.062 44.7851 17.3001C44.7851 17.4995 44.7716 17.6984 44.7467 17.8968C41.611 14.475 35.6382 12.2873 29 12.2873C22.3618 12.2873 16.3891 14.4751 13.2534 17.8968C13.2282 17.6989 13.2153 17.4996 13.2149 17.3001Z" fill="#F1CDB3"></path>
	<path d="M29 34.8085C28.8462 34.8085 28.6941 34.8397 28.5527 34.9002C28.4113 34.9607 28.2837 35.0492 28.1775 35.1604C27.4369 35.9363 25.0208 38.6139 25.0208 40.4931C25.0208 42.6872 26.8059 44.4723 29 44.4723C31.1941 44.4723 32.9792 42.6872 32.9792 40.4931C32.9792 38.6139 30.563 35.9363 29.8225 35.1604C29.7163 35.0492 29.5887 34.9607 29.4473 34.9002C29.3059 34.8397 29.1538 34.8085 29 34.8085ZM29 42.1985C28.0597 42.1985 27.2946 41.4335 27.2946 40.4932C27.2946 39.9884 28.0882 38.7687 29 37.6618C29.9119 38.7689 30.7054 39.9884 30.7054 40.4932C30.7054 41.4335 29.9403 42.1985 29 42.1985Z" fill="#F1CDB3"></path>
	<path d="M23.9036 19.9148H23.5531C22.9252 19.9148 22.4162 20.4238 22.4162 21.0517C22.4162 21.6797 22.9252 22.1887 23.5531 22.1887H23.9036C24.5315 22.1887 25.0405 21.6797 25.0405 21.0517C25.0405 20.4238 24.5315 19.9148 23.9036 19.9148Z" fill="#F1CDB3"></path>
	<path d="M37.395 19.9148H29.285C28.657 19.9148 28.148 20.4238 28.148 21.0517C28.148 21.6797 28.657 22.1887 29.285 22.1887H37.395C38.0229 22.1887 38.5319 21.6797 38.5319 21.0517C38.5319 20.4238 38.0229 19.9148 37.395 19.9148Z" fill="#F1CDB3"></path>  
  </symbol>
  <symbol fill="none" xmlns="http://www.w3.org/2000/svg" viewBox="0 0 12 12" id="closure">
    <path fill-rule="evenodd" clip-rule="evenodd" d="M7.42618 6.00003L11.7046 1.72158C12.0985 1.32775 12.0985 0.689213 11.7046 0.295433C11.3108 -0.0984027 10.6723 -0.0984027 10.2785 0.295433L5.99998 4.57394L1.72148 0.295377C1.32765 -0.098459 0.68917 -0.098459 0.295334 0.295377C-0.0984448 0.689213 -0.0984448 1.32775 0.295334 1.72153L4.57383 5.99997L0.295334 10.2785C-0.0984448 10.6723 -0.0984448 11.3108 0.295334 11.7046C0.68917 12.0985 1.32765 12.0985 1.72148 11.7046L5.99998 7.42612L10.2785 11.7046C10.6723 12.0985 11.3108 12.0985 11.7046 11.7046C12.0985 11.3108 12.0985 10.6723 11.7046 10.2785L7.42618 6.00003Z" fill="#292929"></path>
  </symbol>
  <symbol fill="none" xmlns="http://www.w3.org/2000/svg" viewBox="0 0 50 50" id="collars-leashes">
    <path d="M47.7475 8.54252C46.4482 7.49721 44.6161 6.56772 42.3014 5.78002C37.6654 4.2022 31.5208 3.33325 24.9998 3.33325C18.4787 3.33325 12.3343 4.20229 7.69823 5.78002C5.38358 6.56772 3.55136 7.49721 2.25214 8.54252C0.757811 9.74506 0 11.0718 0 12.4858V23.4156C0 24.8297 0.757811 26.1565 2.25224 27.3589C3.55146 28.4042 5.38358 29.3337 7.69832 30.1214C12.1021 31.6202 17.8674 32.4787 24.0234 32.561V36.4795H20.6557C20.2827 34.5082 18.5472 33.0129 16.4691 33.0129C14.1196 33.0129 12.2083 34.9243 12.2083 37.2736C12.2083 38.2951 12.5706 39.2623 13.2116 40.0207C12.5625 40.7887 12.207 41.7622 12.2083 42.7677C12.2083 45.1172 14.1196 47.0285 16.4691 47.0285C18.5472 47.0285 20.2827 45.5331 20.6557 43.5619H29.3443C29.7173 45.5332 31.4528 47.0285 33.5309 47.0285C35.8804 47.0285 37.7917 45.1171 37.7917 42.7677C37.7917 41.7463 37.4294 40.7791 36.7884 40.0207C37.4375 39.2526 37.793 38.2792 37.7917 37.2736C37.7917 34.9242 35.8804 33.0129 33.5309 33.0129C31.4528 33.0129 29.7173 34.5083 29.3443 36.4795H25.9766V32.561C32.1326 32.4787 37.8979 31.6202 42.3017 30.1214C44.6163 29.3337 46.4485 28.4042 47.7478 27.3589C49.2422 26.1565 50 24.8297 50 23.4156V12.4858C49.9997 11.0718 49.2419 9.74506 47.7475 8.54252ZM30.2518 38.4327C30.3846 38.4327 30.5159 38.4056 30.6379 38.3531C30.7599 38.3006 30.8698 38.2237 30.9611 38.1273C31.0523 38.0308 31.123 37.9168 31.1687 37.7921C31.2144 37.6675 31.2342 37.5348 31.2269 37.4022C31.2245 37.3594 31.2232 37.3166 31.2231 37.2737C31.2231 36.0013 32.2583 34.9661 33.5308 34.9661C34.8032 34.9661 35.8385 36.0014 35.8385 37.2737C35.8385 38.0535 35.4481 38.7752 34.7942 39.2044C34.6588 39.2932 34.5476 39.4144 34.4707 39.5569C34.3938 39.6994 34.3535 39.8588 34.3535 40.0208C34.3535 40.1827 34.3938 40.3421 34.4707 40.4847C34.5476 40.6272 34.6588 40.7483 34.7942 40.8372C35.4481 41.2664 35.8385 41.9881 35.8385 42.7678C35.8385 44.0403 34.8032 45.0755 33.5308 45.0755C32.2583 45.0755 31.2231 44.0402 31.2231 42.7678C31.2231 42.7247 31.2246 42.6819 31.2269 42.6393C31.2343 42.5067 31.2145 42.374 31.1688 42.2493C31.1232 42.1246 31.0525 42.0106 30.9612 41.9141C30.87 41.8177 30.76 41.7408 30.638 41.6884C30.516 41.6359 30.3846 41.6088 30.2518 41.6089H19.7479C19.6151 41.6089 19.4838 41.636 19.3618 41.6885C19.2398 41.741 19.1299 41.8178 19.0386 41.9143C18.9474 42.0107 18.8767 42.1248 18.831 42.2494C18.7853 42.3741 18.7655 42.5068 18.7728 42.6393C18.7751 42.6819 18.7766 42.7247 18.7766 42.7678C18.7766 44.0403 17.7414 45.0755 16.4689 45.0755C15.1965 45.0755 14.1612 44.0402 14.1612 42.7678C14.1612 41.9881 14.5516 41.2664 15.2055 40.8372C15.3409 40.7483 15.4521 40.6272 15.529 40.4847C15.606 40.3421 15.6462 40.1827 15.6462 40.0208C15.6462 39.8588 15.606 39.6994 15.529 39.5569C15.4521 39.4144 15.3409 39.2932 15.2055 39.2044C14.5516 38.7752 14.1612 38.0535 14.1612 37.2737C14.1612 36.0013 15.1965 34.9661 16.4689 34.9661C17.7414 34.9661 18.7766 36.0014 18.7766 37.2737C18.7766 37.3169 18.7751 37.3596 18.7728 37.4022C18.7654 37.5348 18.7852 37.6675 18.8309 37.7922C18.8766 37.9169 18.9472 38.031 19.0385 38.1274C19.1297 38.2239 19.2397 38.3007 19.3617 38.3532C19.4837 38.4057 19.6151 38.4327 19.7479 38.4327H30.2518ZM24.9999 30.6151C23.7029 30.6151 22.6477 29.56 22.6477 28.263C22.6477 26.966 23.7029 25.9108 24.9999 25.9108C26.2968 25.9108 27.352 26.966 27.352 28.263C27.352 29.56 26.2968 30.6151 24.9999 30.6151ZM48.0466 23.4156C48.0466 26.5055 40.2537 29.9153 28.6637 30.5206C29.0838 29.8425 29.3059 29.0605 29.3051 28.2629C29.3051 27.9552 29.272 27.6551 29.2104 27.3654C33.0005 27.1169 36.5212 26.5514 39.4579 25.7134C39.9765 25.5653 40.2771 25.025 40.129 24.5064C39.981 23.9877 39.4408 23.6872 38.922 23.8353C35.9082 24.6952 32.2325 25.2561 28.2676 25.4647C27.4774 24.5432 26.3061 23.9577 24.9999 23.9577C23.6868 23.9577 22.5098 24.5493 21.7195 25.4793C19.0321 25.3511 16.4783 25.0642 14.1253 24.6215C13.5958 24.5216 13.0847 24.8706 12.985 25.4006C12.8853 25.9307 13.2342 26.4411 13.7642 26.5409C15.9577 26.9536 18.3146 27.2359 20.7848 27.3854C20.7248 27.674 20.6946 27.9681 20.6947 28.263C20.6939 29.0606 20.916 29.8426 21.3361 30.5207C9.74598 29.9154 1.95312 26.5056 1.95312 23.4156V16.1781L1.9664 16.1893C2.06004 16.2711 2.15531 16.351 2.25214 16.429C2.3827 16.5334 2.51571 16.6347 2.65107 16.7327L2.65312 16.7342C2.72597 16.7872 2.80029 16.84 2.87597 16.8924L2.90976 16.9156C2.98095 16.9646 3.05312 17.0133 3.12675 17.0616C3.1416 17.0714 3.15683 17.0812 3.17187 17.0909C3.24618 17.1393 3.32138 17.1875 3.39814 17.2353L3.43124 17.2556C4.58534 17.9693 6.01327 18.6181 7.69813 19.1915C12.3342 20.7694 18.4786 21.6383 24.9998 21.6383C31.5209 21.6383 37.6654 20.7694 42.3014 19.1915C43.9864 18.6181 45.4145 17.9692 46.5687 17.2554L46.6014 17.2354C46.6782 17.1875 46.7535 17.1393 46.8279 17.0908L46.8729 17.0617C46.9465 17.0134 47.0188 16.9647 47.0899 16.9157L47.1237 16.8925C47.1994 16.8401 47.2737 16.7873 47.3466 16.7343L47.3486 16.7328C47.484 16.6348 47.617 16.5335 47.7476 16.4291C47.8444 16.3511 47.9396 16.2712 48.0333 16.1894L48.0466 16.1782V23.4156ZM6.2744 16.5451C7.12508 16.1563 8.28866 15.7097 9.83533 15.276C14.0378 14.0977 19.4234 13.4489 24.9999 13.4489C30.5763 13.4489 35.9619 14.0978 40.1643 15.276C41.711 15.7096 42.8747 16.1562 43.7253 16.5451C39.6839 18.3462 33.0684 19.6853 24.9999 19.6853C16.9313 19.6853 10.3158 18.3461 6.2744 16.5451ZM48.0404 12.6289C48.0361 12.6859 48.0293 12.7427 48.02 12.7991L48.0188 12.8079C48.0082 12.8679 47.995 12.9274 47.9792 12.9862C47.968 13.0287 47.9555 13.0709 47.9417 13.1126L47.9337 13.1371C47.9122 13.1991 47.8882 13.2601 47.8618 13.3201C47.8515 13.3439 47.8402 13.3675 47.829 13.3912C47.8065 13.4385 47.7829 13.4856 47.7573 13.5322L47.7505 13.5447C47.3441 14.2781 46.5771 14.9196 45.8153 15.4205C44.8038 14.8378 43.1816 14.0936 40.6917 13.3954C36.3225 12.1704 30.7497 11.4959 25 11.4959C19.2502 11.4959 13.6775 12.1705 9.30809 13.3955C6.81835 14.0936 5.19618 14.8378 4.18456 15.4206C3.42294 14.9198 2.65585 14.2782 2.24941 13.5448L2.24257 13.5323C2.21699 13.4856 2.19335 13.4385 2.1708 13.3911C2.15966 13.3675 2.14843 13.344 2.13818 13.3203C2.12939 13.3004 2.12109 13.2804 2.11289 13.2604C2.09619 13.2194 2.08027 13.1784 2.06621 13.1373C2.06337 13.1292 2.06084 13.1209 2.0581 13.1128C2.04048 13.0595 2.02494 13.0056 2.01152 12.9511C1.99965 12.9038 1.98949 12.8561 1.98105 12.8081L1.97978 12.7993C1.97046 12.7429 1.96365 12.6861 1.95937 12.6291C1.95544 12.5814 1.95336 12.5336 1.95312 12.4858C1.95312 9.08051 11.418 5.28637 24.9999 5.28637C38.5817 5.28637 48.0466 9.08051 48.0466 12.4858C48.0466 12.5334 48.044 12.5812 48.0404 12.6289Z" fill="#F1CDB3"></path>
    <path d="M40.1471 9.70259C40.1091 9.51344 40.0164 9.3396 39.8806 9.20259C39.8352 9.15746 39.7854 9.1169 39.7321 9.0815C39.6255 9.01065 39.5061 8.96123 39.3806 8.93599C39.2546 8.9106 39.1248 8.9106 38.9988 8.93599C38.9363 8.94869 38.8757 8.96724 38.8161 8.99166C38.7575 9.01607 38.7009 9.04634 38.6482 9.0815C38.5945 9.11666 38.5447 9.15767 38.4988 9.20259C38.4538 9.24752 38.4138 9.2983 38.3778 9.35103C38.3069 9.45766 38.2575 9.57707 38.2323 9.70259C38.2196 9.76607 38.2137 9.82955 38.2137 9.89302C38.2137 9.95748 38.2197 10.021 38.2323 10.0844C38.2575 10.21 38.3069 10.3294 38.3778 10.436C38.4138 10.4887 38.4538 10.5385 38.4988 10.5844C38.5448 10.6294 38.5946 10.6694 38.6482 10.7055C38.7009 10.7407 38.7575 10.771 38.8161 10.7954C38.8757 10.8198 38.9364 10.8383 38.9988 10.851C39.0622 10.8637 39.1268 10.8706 39.1902 10.8706C39.2536 10.8706 39.3182 10.8637 39.3806 10.851C39.4431 10.8383 39.5047 10.8198 39.5632 10.7954C39.6218 10.771 39.6784 10.7407 39.7321 10.7055C39.7848 10.6694 39.8357 10.6294 39.8806 10.5844C39.9255 10.5385 39.9665 10.4887 40.0017 10.436C40.0725 10.3294 40.1219 10.2099 40.1471 10.0844C40.1599 10.021 40.1666 9.95748 40.1666 9.89302C40.1666 9.82945 40.1599 9.76597 40.1471 9.70259Z" fill="#F1CDB3"></path>
    <path d="M36.2358 8.21705C32.8712 7.58404 29.0416 7.24937 25.1613 7.24937C19.7907 7.24937 14.5988 7.88687 10.542 9.04459C10.0235 9.19264 9.72289 9.73297 9.87093 10.2516C9.9932 10.6808 10.3842 10.9605 10.8094 10.9605C10.8981 10.9605 10.9883 10.9484 11.0779 10.9228C14.9652 9.81354 19.9666 9.2026 25.1612 9.2026C28.9225 9.2026 32.6271 9.52555 35.8745 10.1366C36.4048 10.2361 36.9151 9.88746 37.0149 9.35738C37.1147 8.8273 36.7658 8.31695 36.2358 8.21705Z" fill="#F1CDB3"></path>
    <path d="M11.7675 24.6742C11.7548 24.6117 11.7363 24.5502 11.7118 24.4906C11.6874 24.4321 11.6572 24.3754 11.622 24.3227C11.5865 24.2692 11.5456 24.2194 11.4999 24.1742C11.455 24.1293 11.4052 24.0883 11.3515 24.0522C11.2988 24.017 11.2421 23.9877 11.1834 23.9633C11.1246 23.9387 11.0634 23.92 11.0008 23.9076C10.8748 23.8822 10.7451 23.8822 10.6191 23.9076C10.5565 23.9194 10.495 23.9389 10.4365 23.9633C10.3769 23.9877 10.3202 24.017 10.2675 24.0522C10.2138 24.0883 10.164 24.1293 10.1191 24.1742C10.0742 24.2192 10.0331 24.269 9.99798 24.3227C9.96282 24.3754 9.93255 24.4321 9.90813 24.4906C9.88372 24.5502 9.86516 24.6117 9.85247 24.6742C9.83977 24.7367 9.83294 24.8012 9.83294 24.8647C9.83354 24.9927 9.85909 25.1194 9.90813 25.2377C9.93255 25.2973 9.96282 25.3539 9.99798 25.4067C10.0331 25.4604 10.0742 25.5101 10.1191 25.5551C10.164 25.6 10.2138 25.641 10.2675 25.6762C10.3202 25.7123 10.3769 25.7416 10.4365 25.766C10.495 25.7905 10.5565 25.81 10.6191 25.8217C10.6816 25.8344 10.746 25.8412 10.8094 25.8412C10.8729 25.8412 10.9374 25.8344 11.0008 25.8217C11.0634 25.8093 11.1246 25.7907 11.1834 25.766C11.2424 25.742 11.2987 25.7119 11.3515 25.6762C11.405 25.641 11.4547 25.6004 11.4999 25.5551C11.591 25.4645 11.6631 25.3566 11.7118 25.2377C11.7612 25.1196 11.7864 24.9927 11.786 24.8647C11.786 24.8011 11.7801 24.7367 11.7675 24.6742Z" fill="#F1CDB3"></path>
  </symbol>
  <symbol fill="none" xmlns="http://www.w3.org/2000/svg" viewBox="0 0 50 50" id="medicines">
    <path d="M49.7136 13.2488L36.751 0.285939C36.3697 -0.0953129 35.7515 -0.0953129 35.3699 0.285939L31.9177 3.73791C31.7346 3.92106 31.6317 4.16945 31.6317 4.42844C31.6317 4.68743 31.7346 4.93581 31.9177 5.11897L36.0186 9.21976L32.1362 13.1022L26.1603 7.1263C25.7788 6.74495 25.1606 6.74505 24.7791 7.1263L20.8138 11.0916C20.6307 11.2748 20.5278 11.5232 20.5278 11.7822C20.5278 12.0412 20.6307 12.2896 20.8138 12.4727L22.0732 13.7321L5.88735 29.9185C4.40004 31.4058 4.40004 33.826 5.88735 35.3136L7.13003 36.5563L4.85151 38.8348C4.76082 38.9255 4.68887 39.0331 4.63979 39.1516C4.59071 39.2701 4.56544 39.3971 4.56544 39.5254C4.56544 39.6536 4.59071 39.7806 4.63979 39.8991C4.68887 40.0176 4.76082 40.1252 4.85151 40.2159L6.6271 41.9916L0.285768 48.3328C-0.0955814 48.7142 -0.0955814 49.3325 0.285768 49.714C0.476491 49.9047 0.726394 50 0.976298 50C1.2262 50 1.4762 49.9047 1.66683 49.714L8.00826 43.3725L9.78395 45.1482C9.9671 45.3313 10.2155 45.4342 10.4745 45.4342C10.7335 45.4342 10.9819 45.3313 11.165 45.1482L13.4435 42.8697L14.6862 44.1124C15.4067 44.8329 16.3648 45.2297 17.3838 45.2297C18.4027 45.2297 19.3608 44.8329 20.0814 44.1124L36.2674 27.9265L37.5267 29.1859C37.6173 29.2767 37.7249 29.3487 37.8435 29.3978C37.962 29.4469 38.089 29.4721 38.2173 29.4719C38.4673 29.4719 38.7171 29.3766 38.9078 29.1859L42.873 25.2205C43.0562 25.0374 43.159 24.789 43.159 24.53C43.159 24.271 43.0562 24.0226 42.873 23.8394L36.8971 17.8635L40.7796 13.9811L44.8804 18.0819C44.971 18.1727 45.0786 18.2448 45.1971 18.2938C45.3156 18.3429 45.4426 18.3681 45.5709 18.3679C45.8209 18.3679 46.0707 18.2726 46.2614 18.0819L49.7135 14.6298C50.095 14.2486 50.095 13.6302 49.7136 13.2488ZM20.613 17.9551L25.1312 22.4732C25.2218 22.5641 25.3294 22.6361 25.4479 22.6852C25.5664 22.7343 25.6934 22.7594 25.8217 22.7593C26.0717 22.7593 26.3215 22.664 26.5122 22.4732C26.8936 22.0919 26.8936 21.4735 26.5122 21.0922L21.9941 16.574L23.4543 15.1137L31.8616 23.521L27.3954 27.9871L18.9881 19.5798L20.613 17.9551ZM10.4745 43.0765L6.9231 39.5253L8.51119 37.9374L12.0624 41.4885L10.4745 43.0765ZM18.7001 42.7312C17.9743 43.457 16.7932 43.4571 16.0674 42.7312L7.26841 33.9324C6.54253 33.2065 6.54253 32.0253 7.26841 31.2995L8.65943 29.9085L11.0641 32.3132C11.2549 32.5039 11.5048 32.5993 11.7547 32.5993C12.0046 32.5993 12.2546 32.5039 12.4452 32.3132C12.8265 31.9319 12.8265 31.3135 12.4452 30.9321L10.0405 28.5274L11.6476 26.9201L16.1657 31.4382C16.3564 31.6289 16.6063 31.7242 16.8562 31.7242C17.1061 31.7242 17.3561 31.6288 17.5468 31.4382C17.9281 31.0569 17.9281 30.4385 17.5468 30.0571L13.0286 25.539L14.6358 23.9317L17.0405 26.3364C17.2312 26.5272 17.4811 26.6225 17.7311 26.6225C17.981 26.6225 18.231 26.5272 18.4216 26.3364C18.8029 25.9551 18.8029 25.3367 18.4216 24.9553L16.0169 22.5506L17.6065 20.9609L26.0139 29.3682L19.6632 35.719C19.2818 36.1003 19.2818 36.7187 19.6632 37.1001C19.8539 37.2909 20.1038 37.3862 20.3537 37.3862C20.6036 37.3862 20.8536 37.2908 21.0442 37.1001L27.395 30.7493L29.0381 32.3925L18.7001 42.7312ZM30.42 31.0115L28.7768 29.3682L33.2429 24.902L34.8861 26.5451L30.42 31.0115ZM40.8015 24.53L38.2173 27.1142L22.8855 11.7825L25.4697 9.19828L40.8015 24.53ZM35.5162 16.4825L33.5172 14.4836L37.3997 10.601L39.3986 12.6L35.5162 16.4825ZM45.5712 16.0103L33.9895 4.42853L36.0605 2.35753L47.6422 13.9392L45.5712 16.0103Z" fill="#F1CDB3"></path>
    <path d="M18.5962 38.9341C18.5845 38.8716 18.5649 38.8101 18.5405 38.7515C18.5162 38.6923 18.4862 38.6357 18.4507 38.5825C18.4155 38.5288 18.3745 38.479 18.3296 38.4341C18.2847 38.3892 18.2349 38.3481 18.1811 38.313C18.1279 38.2775 18.0714 38.2474 18.0122 38.2231C17.9536 38.1987 17.8921 38.1802 17.8296 38.1675C17.7039 38.1421 17.5744 38.1421 17.4487 38.1675C17.3862 38.1802 17.3247 38.1987 17.2661 38.2231C17.2065 38.2476 17.1499 38.2778 17.0972 38.313C17.0434 38.3481 16.9936 38.3892 16.9487 38.4341C16.9038 38.479 16.8628 38.5288 16.8276 38.5825C16.7925 38.6352 16.7622 38.6919 16.7378 38.7515C16.7134 38.8101 16.6938 38.8716 16.6821 38.9341C16.6694 38.9966 16.6626 39.061 16.6626 39.1245C16.6626 39.188 16.6694 39.2524 16.6821 39.3159C16.6938 39.3775 16.7134 39.439 16.7378 39.4985C16.7622 39.5571 16.7925 39.6138 16.8276 39.6665C16.8628 39.7202 16.9038 39.77 16.9487 39.815C17.0393 39.906 17.1472 39.9781 17.2661 40.0269C17.3843 40.0762 17.5111 40.1015 17.6391 40.1011C17.7672 40.1015 17.894 40.0762 18.0122 40.0269C18.1311 39.9781 18.239 39.906 18.3296 39.815C18.3745 39.77 18.4155 39.7202 18.4507 39.6665C18.4858 39.6138 18.5161 39.5571 18.5405 39.4985C18.5649 39.439 18.5845 39.3775 18.5962 39.3159C18.6089 39.2524 18.6157 39.188 18.6157 39.1245C18.6157 39.061 18.6089 38.9966 18.5962 38.9341Z" fill="#F1CDB3"></path>
  </symbol>
  <symbol fill="none" xmlns="http://www.w3.org/2000/svg" viewBox="0 0 50 50" id="pet-food">
    <path d="M44.0815 21.2481L39.2857 8.12275V1.19043C39.2857 0.533008 38.7526 0 38.0953 0H11.9049C11.2475 0 10.7145 0.533105 10.7145 1.19043V8.12266L5.91846 21.2481C5.34941 22.803 5.05867 24.4459 5.05957 26.1016V45.8971C5.05957 48.1594 6.9001 50 9.1625 50H40.8375C43.0999 50 44.9404 48.1594 44.9404 45.8971V26.1016C44.9404 24.4408 44.6515 22.8078 44.0815 21.2481ZM13.0952 2.38096H36.9048V7.14287H13.0952V2.38096ZM42.5596 41.7768H25.7564C25.099 41.7768 24.566 42.3099 24.566 42.9672C24.566 43.6246 25.0991 44.1576 25.7564 44.1576H42.5596V45.8969C42.5596 46.8464 41.7871 47.6189 40.8375 47.6189H9.1625C8.21299 47.6189 7.44053 46.8465 7.44053 45.8969V26.1016C7.43979 24.7246 7.68157 23.3583 8.15479 22.0652L12.7373 9.52383H37.2627L41.8452 22.0652C42.3184 23.3583 42.5602 24.7246 42.5595 26.1016L42.5596 41.7768Z" fill="#F1CDB3"></path>
    <path d="M29.6808 28.1709C29.2921 25.731 27.1732 23.86 24.6254 23.86C22.0777 23.86 19.9587 25.731 19.57 28.1709C17.5559 28.9991 16.2381 31.063 16.4082 33.3049C16.598 35.8031 18.6255 37.8267 21.1241 38.0123C22.0893 38.0842 23.0477 37.8857 23.8959 37.4382C24.3596 37.194 24.8914 37.1938 25.3547 37.4383C26.0904 37.8256 26.9095 38.0276 27.7409 38.0267C27.8691 38.0267 27.9979 38.0219 28.1264 38.0124C30.6252 37.8269 32.6527 35.8032 32.8425 33.305C33.0127 31.063 31.6949 28.9991 29.6808 28.1709ZM30.4684 33.1246C30.3671 34.4583 29.2846 35.5388 27.9502 35.6379C27.4314 35.6772 26.9178 35.5709 26.4655 35.3322C25.8984 35.0328 25.2668 34.8764 24.6255 34.8764C23.9842 34.8764 23.3526 35.0328 22.7855 35.3322C22.3332 35.5707 21.8207 35.6769 21.3007 35.6379C19.9664 35.5389 18.8838 34.4584 18.7826 33.1246C18.6786 31.7551 19.608 30.5103 20.9443 30.2289C21.2156 30.1717 21.4586 30.0216 21.6311 29.8044C21.8036 29.5873 21.8949 29.3167 21.8893 29.0394L21.8873 28.9792C21.8873 27.4693 23.1155 26.2411 24.6254 26.2411C26.1353 26.2411 27.3635 27.4693 27.3635 28.9749L27.3616 29.0394C27.3559 29.3167 27.4472 29.5873 27.6197 29.8045C27.7922 30.0217 28.0352 30.1718 28.3067 30.2289C29.6431 30.5103 30.5724 31.7551 30.4684 33.1246Z" fill="#F1CDB3"></path>
    <path d="M24.6255 21.4792C26.759 21.4792 28.4945 19.7437 28.4945 17.6102C28.4945 15.4767 26.759 13.7411 24.6255 13.7411C22.492 13.7411 20.7565 15.4768 20.7565 17.6102C20.7565 19.7436 22.4922 21.4792 24.6255 21.4792ZM24.6255 16.1221C25.4461 16.1221 26.1136 16.7896 26.1136 17.6102C26.1136 18.4308 25.4461 19.0983 24.6255 19.0983C23.8049 19.0983 23.1374 18.4308 23.1374 17.6102C23.1374 16.7896 23.805 16.1221 24.6255 16.1221Z" fill="#F1CDB3"></path>
    <path d="M20.1612 22.2134C20.1612 20.0799 18.4256 18.3444 16.2922 18.3444C14.1588 18.3444 12.4231 20.08 12.4231 22.2134C12.4231 24.3468 14.1587 26.0824 16.2922 26.0824C18.4257 26.0824 20.1612 24.3468 20.1612 22.2134ZM16.2922 23.7015C15.4716 23.7015 14.8041 23.034 14.8041 22.2134C14.8041 21.3928 15.4716 20.7253 16.2922 20.7253C17.1128 20.7253 17.7803 21.3928 17.7803 22.2134C17.7803 23.034 17.1127 23.7015 16.2922 23.7015Z" fill="#F1CDB3"></path>
    <path d="M32.9588 18.3443C30.8253 18.3443 29.0898 20.0799 29.0898 22.2133C29.0898 24.3467 30.8255 26.0823 32.9588 26.0823C35.0923 26.0823 36.8278 24.3468 36.8278 22.2133C36.8278 20.0798 35.0923 18.3443 32.9588 18.3443ZM32.9588 23.7015C32.1382 23.7015 31.4707 23.034 31.4707 22.2134C31.4707 21.3928 32.1383 20.7253 32.9588 20.7253C33.7794 20.7253 34.4469 21.3928 34.4469 22.2134C34.4469 23.034 33.7794 23.7015 32.9588 23.7015Z" fill="#F1CDB3"></path>
    <path d="M20.5778 41.7768H20.2888C19.6314 41.7768 19.0983 42.3099 19.0983 42.9672C19.0983 43.6247 19.6315 44.1577 20.2888 44.1577H20.5778C21.2353 44.1577 21.7683 43.6246 21.7683 42.9672C21.7684 42.3099 21.2354 41.7768 20.5778 41.7768Z" fill="#F1CDB3"></path>
  </symbol>
  <symbol fill="none" xmlns="http://www.w3.org/2000/svg" viewBox="0 0 50 50" id="shampoos">
    <path d="M30.9419 14.3179V9.78264C30.9419 9.18234 30.4553 8.69572 29.855 8.69572H29.0397V1.08692C29.0397 0.486622 28.5531 0 27.9528 0H20.8876C20.2873 0 19.8007 0.486622 19.8007 1.08692V8.69562H18.9854C18.3851 8.69562 17.8985 9.18224 17.8985 9.78254V14.3178C14.0814 15.8399 11.3767 19.5733 11.3767 23.9267V48.9131C11.3767 49.5134 11.8633 50 12.4636 50H36.3768C36.9771 50 37.4637 49.5134 37.4637 48.9131V23.9268C37.4636 19.5733 34.7589 15.8399 30.9419 14.3179ZM21.9745 2.17393H26.8658V8.69572H21.9745V2.17393ZM20.0722 10.8696H28.7679V13.5869H20.0722V10.8696ZM35.2896 47.8262H13.5505V23.9268C13.5505 19.4241 17.2137 15.7609 21.7164 15.7609H27.1238C31.6266 15.7609 35.2896 19.4241 35.2896 23.9268V47.8262Z" fill="#F1CDB3"></path>
    <path d="M31.4854 22.8261H17.3549C16.7546 22.8261 16.268 23.3127 16.268 23.913V44.0218C16.268 44.6221 16.7546 45.1087 17.3549 45.1087H31.4854C32.0857 45.1087 32.5723 44.6221 32.5723 44.0218V37.1907C32.5723 36.5904 32.0857 36.1038 31.4854 36.1038C30.8851 36.1038 30.3985 36.5904 30.3985 37.1907V42.9348H18.4419V25H30.3985V28.4407C30.3985 29.041 30.8851 29.5276 31.4854 29.5276C32.0857 29.5276 32.5723 29.041 32.5723 28.4407V23.9131C32.5723 23.3127 32.0857 22.8261 31.4854 22.8261Z" fill="#F1CDB3"></path>
    <path d="M31.4853 31.7204C30.8851 31.7204 30.3984 32.2071 30.3984 32.8074V32.916C30.3984 33.5163 30.8851 34.003 31.4853 34.003C32.0856 34.003 32.5723 33.5163 32.5723 32.916V32.8074C32.5723 32.2071 32.0856 31.7204 31.4853 31.7204Z" fill="#F1CDB3"></path>
    <path d="M23.3268 34.2928C21.5288 34.2928 20.066 35.7556 20.066 37.5536C20.066 39.3517 21.5288 40.8145 23.3268 40.8145C25.1249 40.8145 26.5877 39.3517 26.5877 37.5536C26.5877 35.7557 25.1249 34.2928 23.3268 34.2928ZM23.3268 38.6406C22.7275 38.6406 22.2399 38.153 22.2399 37.5537C22.2399 36.9544 22.7275 36.4668 23.3268 36.4668C23.9261 36.4668 24.4137 36.9544 24.4137 37.5537C24.4137 38.153 23.9262 38.6406 23.3268 38.6406Z" fill="#F1CDB3"></path>
    <path d="M29.038 29.9869C29.038 28.1889 27.5752 26.7261 25.7772 26.7261C23.9791 26.7261 22.5163 28.1889 22.5163 29.9869C22.5163 31.785 23.9791 33.2478 25.7772 33.2478C27.5751 33.2479 29.038 31.785 29.038 29.9869ZM25.7771 31.0739C25.1777 31.0739 24.6901 30.5863 24.6901 29.987C24.6901 29.3877 25.1777 28.9001 25.7771 28.9001C26.3764 28.9001 26.864 29.3877 26.864 29.987C26.864 30.5863 26.3766 31.0739 25.7771 31.0739Z" fill="#F1CDB3"></path>
  </symbol>
  <symbol fill="none" xmlns="http://www.w3.org/2000/svg" viewBox="0 0 50 50" id="sleeping-area">
    <path d="M48.294 16.6386L25.8171 0.188547C25.6497 0.0660387 25.4477 0 25.2403 0C25.0329 0 24.8309 0.0660387 24.6635 0.188547L2.18668 16.6386C1.75153 16.9571 1.6569 17.5682 1.97545 18.0034L4.91325 22.0176C4.98897 22.1211 5.08434 22.2087 5.19392 22.2754C5.30351 22.342 5.42515 22.3864 5.5519 22.4061C5.67866 22.4257 5.80803 22.4201 5.93264 22.3897C6.05724 22.3593 6.17463 22.3046 6.2781 22.2288L7.16463 21.58V49.0234C7.16463 49.5627 7.60193 50 8.14119 50H42.3911C42.9303 50 43.3676 49.5627 43.3676 49.0234V21.6178L44.2026 22.2288C44.3061 22.3046 44.4235 22.3593 44.5481 22.3896C44.6726 22.42 44.802 22.4256 44.9287 22.406C45.0555 22.3864 45.1771 22.342 45.2867 22.2753C45.3963 22.2087 45.4916 22.1211 45.5674 22.0176L48.5052 18.0034C48.8238 17.5681 48.7292 16.9571 48.294 16.6386ZM41.4145 44.2381H18.3098C17.7705 44.2381 17.3332 44.6754 17.3332 45.2146C17.3332 45.7539 17.7705 46.1912 18.3098 46.1912H41.4145V48.047H9.11766V20.9209H31.9871C32.5263 20.9209 32.9636 20.4836 32.9636 19.9444C32.9636 19.4051 32.5263 18.9678 31.9871 18.9678H10.7345L25.2404 8.35107L41.4145 20.1884V44.2381ZM44.568 20.076L25.8171 6.35292C25.6498 6.23034 25.4478 6.16428 25.2404 6.16434C25.0329 6.16426 24.8309 6.23032 24.6636 6.35292L5.91257 20.076L4.12829 17.6379L25.2405 2.1866L46.3526 17.6379L44.568 20.076Z" fill="#F1CDB3"></path>
    <path d="M36.4631 19.7539C36.4504 19.6913 36.4308 19.6298 36.4064 19.5702C36.382 19.5116 36.3517 19.455 36.3166 19.4022C36.2814 19.3487 36.2408 19.299 36.1955 19.2538C36.0119 19.0713 35.7639 18.9685 35.505 18.9676C35.2482 18.9676 34.9963 19.072 34.8147 19.2538C34.7698 19.2987 34.7288 19.3485 34.6936 19.4022C34.6585 19.455 34.6282 19.5116 34.6038 19.5702C34.5794 19.6298 34.5598 19.6913 34.5481 19.7539C34.5354 19.8164 34.5286 19.8808 34.5286 19.9442C34.5286 20.0077 34.5354 20.0722 34.5481 20.1346C34.5598 20.197 34.5794 20.2587 34.6038 20.3182C34.6282 20.3769 34.6585 20.4336 34.6936 20.4863C34.7288 20.54 34.7698 20.5897 34.8147 20.6347C34.8596 20.6797 34.9094 20.7207 34.9632 20.7558C35.0159 20.7909 35.0725 20.8213 35.1321 20.8457C35.1907 20.8701 35.2521 20.8896 35.3147 20.9013C35.3772 20.914 35.4417 20.9208 35.505 20.9208C35.5685 20.9208 35.6331 20.914 35.6955 20.9013C35.7581 20.8892 35.8193 20.8706 35.8781 20.8457C35.9377 20.8213 35.9943 20.7909 36.047 20.7558C36.1007 20.7207 36.1505 20.6797 36.1955 20.6347C36.2404 20.5898 36.2814 20.54 36.3166 20.4863C36.3517 20.4336 36.382 20.3769 36.4064 20.3182C36.4308 20.2588 36.4504 20.1971 36.4631 20.1346C36.4758 20.0721 36.4815 20.0077 36.4815 19.9442C36.4815 19.8808 36.4757 19.8163 36.4631 19.7539Z" fill="#F1CDB3"></path>
    <path d="M15.7489 45.0236C15.7364 44.961 15.7178 44.8999 15.6933 44.8409C15.6689 44.7822 15.6386 44.7247 15.6034 44.672C15.568 44.6187 15.5275 44.5689 15.4824 44.5236C15.4375 44.4786 15.3876 44.4386 15.334 44.4025C15.2273 44.3316 15.1079 44.2822 14.9824 44.257C14.8564 44.2316 14.7266 44.2316 14.6006 44.257C14.539 44.2696 14.4775 44.2882 14.4179 44.3126C14.3594 44.337 14.3027 44.3673 14.25 44.4025C14.1963 44.4376 14.1464 44.4786 14.1015 44.5236C14.0556 44.5685 14.0156 44.6193 13.9795 44.672C13.9086 44.7786 13.8592 44.898 13.8341 45.0236C13.8213 45.087 13.8155 45.1505 13.8155 45.214C13.8151 45.3423 13.8403 45.4695 13.8896 45.5879C13.914 45.6466 13.9444 45.7033 13.9795 45.7569C14.0156 45.8096 14.0556 45.8594 14.1015 45.9053C14.1465 45.9503 14.1964 45.9913 14.25 46.0264C14.3027 46.0616 14.3594 46.0918 14.4179 46.1162C14.4775 46.1407 14.539 46.1592 14.6006 46.1719C14.664 46.1846 14.7285 46.1914 14.792 46.1914C14.9849 46.1906 15.1733 46.1332 15.334 46.0264C15.3875 45.9913 15.4372 45.9507 15.4824 45.9053C15.5273 45.8594 15.5683 45.8097 15.6034 45.7569C15.7105 45.596 15.7679 45.4072 15.7684 45.214C15.7684 45.1505 15.7616 45.0869 15.7489 45.0236Z" fill="#F1CDB3"></path>
    <path d="M37.3708 25.4785C37.3708 24.6503 37.046 23.873 36.4561 23.2901C35.8719 22.7129 35.0731 22.3897 34.2586 22.3968C34.0018 22.3995 33.7463 22.4341 33.498 22.4998C31.6896 22.9629 29.9228 23.5753 28.2157 24.3306C27.2407 24.1 26.2423 23.9839 25.2405 23.9845C24.6763 23.9845 24.1072 24.0215 23.5485 24.0945C23.117 24.1514 22.6888 24.2302 22.2654 24.3306C20.5585 23.5753 18.792 22.9631 16.9839 22.5C16.9752 22.4975 16.9665 22.4952 16.9577 22.493C15.9966 22.2482 15.0054 22.4683 14.2384 23.0976C13.4716 23.7267 13.0621 24.6557 13.1148 25.6455C13.1685 26.6616 13.2685 27.6747 13.4143 28.6817C13.5452 29.5844 13.7125 30.4814 13.9157 31.3706C13.6134 32.1442 13.4027 32.9505 13.2881 33.7731C13.2404 34.1165 13.2163 34.4628 13.216 34.8096C13.216 39.1812 17.0281 42.7378 21.7141 42.7378H28.7671C31.3356 42.7378 33.7385 41.6697 35.3599 39.8073C36.8458 38.1005 37.4967 35.9572 37.1929 33.7725C37.1276 33.3041 37.0312 32.8405 36.9045 32.3849C36.8084 32.0416 36.6954 31.7033 36.5658 31.3712C36.9956 29.4899 37.2635 27.5752 37.3663 25.6481C37.3693 25.591 37.3708 25.5348 37.3708 25.4785ZM35.4158 25.5392L35.4156 25.5426C35.3136 27.4576 35.0385 29.3594 34.5938 31.2248C34.5454 31.4279 34.5633 31.6411 34.6449 31.8332C34.7937 32.1833 34.9199 32.5427 35.0225 32.909C35.1259 33.2809 35.2046 33.6592 35.258 34.0415C35.4828 35.6582 34.9957 37.2504 33.8863 38.5247C32.636 39.9609 30.7701 40.7846 28.7667 40.7846H21.7136C18.1048 40.7846 15.1687 38.1042 15.1687 34.8096C15.1687 34.5567 15.1867 34.298 15.2222 34.0414C15.3283 33.2818 15.5345 32.5395 15.8354 31.834C15.9173 31.6417 15.9353 31.4282 15.8868 31.2249C15.6646 30.2924 15.4843 29.3504 15.3467 28.4017C15.2094 27.4533 15.1153 26.4992 15.0647 25.5424C15.0453 25.1791 15.1955 24.8384 15.4769 24.6075C15.6829 24.4384 15.9333 24.3497 16.191 24.3497C16.2788 24.3497 16.3676 24.3599 16.4558 24.3809L16.4752 24.3861C18.2913 24.8496 20.0628 25.4729 21.7689 26.2488C21.9749 26.3427 22.2072 26.3622 22.426 26.3039C22.8782 26.1833 23.3378 26.0922 23.8018 26.031C24.2761 25.969 24.7601 25.9376 25.2399 25.9376C26.1963 25.9376 27.1429 26.0608 28.0537 26.3039C28.2722 26.3619 28.5042 26.3429 28.7101 26.2492C30.4223 25.4706 32.2003 24.8455 34.023 24.3811C34.1064 24.3612 34.1918 24.3506 34.2776 24.3497H34.2903C34.5822 24.3497 34.8705 24.4694 35.0828 24.6792C35.189 24.7834 35.2733 24.9078 35.3307 25.045C35.3882 25.1823 35.4176 25.3296 35.4173 25.4784C35.4174 25.4986 35.4169 25.5187 35.4158 25.5392Z" fill="#F1CDB3"></path>
    <path d="M27.0719 36.3052C26.6005 36.3052 26.2169 35.9217 26.2169 35.4503C26.2169 34.9111 25.7797 34.4738 25.2404 34.4738C24.701 34.4738 24.2638 34.9111 24.2638 35.4503V35.486C24.2638 35.9574 23.8803 36.341 23.4089 36.341C22.8696 36.341 22.4324 36.7783 22.4324 37.3175C22.4324 37.8568 22.8696 38.2941 23.4089 38.2941C24.1179 38.2941 24.7662 38.0297 25.2609 37.5947C25.7667 38.0237 26.4086 38.259 27.0719 38.2583C27.6112 38.2583 28.0485 37.821 28.0485 37.2818C28.0485 36.7424 27.6112 36.3052 27.0719 36.3052Z" fill="#F1CDB3"></path>
    <path d="M21.8267 31.8054L20.3761 31.1407C20.2485 31.0822 20.1098 31.0519 19.9694 31.0519C19.829 31.0519 19.6902 31.0822 19.5626 31.1407L18.112 31.8054C17.6216 32.03 17.4062 32.6096 17.6309 33.0999C17.6843 33.2165 17.7601 33.3215 17.8541 33.4087C17.9481 33.496 18.0583 33.5639 18.1785 33.6086C18.2987 33.6533 18.4266 33.6738 18.5547 33.6691C18.6829 33.6644 18.8089 33.6344 18.9254 33.581L19.9693 33.1027L21.0131 33.581C21.5032 33.8059 22.0831 33.5902 22.3077 33.0999C22.5325 32.6096 22.3169 32.0299 21.8267 31.8054Z" fill="#F1CDB3"></path>
    <path d="M32.3687 31.8052L30.9182 31.1406C30.7905 31.082 30.6518 31.0517 30.5114 31.0517C30.371 31.0517 30.2323 31.082 30.1047 31.1406L28.6541 31.8052C28.1637 32.0298 27.9483 32.6094 28.173 33.0998C28.3977 33.5903 28.9773 33.8058 29.4676 33.5808L30.5114 33.1026L31.5553 33.5808C31.6826 33.6394 31.8212 33.6698 31.9614 33.6698C32.3315 33.6698 32.6855 33.4583 32.8498 33.0998C33.0745 32.6094 32.8592 32.0298 32.3687 31.8052Z" fill="#F1CDB3"></path>
  </symbol>
  <symbol fill="none" xmlns="http://www.w3.org/2000/svg" viewBox="0 0 50 50" id="toys">
    <path d="M42.6776 7.32227C37.9558 2.60059 31.6777 0 25 0C18.3223 0 12.0442 2.60059 7.32236 7.32227C2.60039 12.0442 0 18.3222 0 25C0 31.6778 2.60039 37.9558 7.32236 42.6777C12.0442 47.3994 18.3223 50 25 50C31.6777 50 37.9558 47.3994 42.6776 42.6777C47.3996 37.9558 50 31.6778 50 25C50 18.3222 47.3996 12.0442 42.6776 7.32227ZM8.85947 41.1404C4.92031 37.2013 2.59932 32.0755 2.22793 26.5693C2.825 26.5897 3.43525 26.6463 4.05186 26.738C8.47119 27.3944 12.9186 29.7695 16.5745 33.4255C20.2305 37.0815 22.6055 41.5288 23.262 45.9482C23.3519 46.5489 23.4078 47.1541 23.4295 47.761C18.1183 47.3979 12.9106 45.1915 8.85947 41.1404ZM25.6052 47.8068C25.5844 47.0776 25.52 46.3503 25.4122 45.6287C24.6876 40.7516 22.0949 35.8717 18.1115 31.8883C14.1281 27.9049 9.24834 25.3122 4.371 24.5876C3.64585 24.4793 2.91484 24.4147 2.18193 24.3943C2.20088 23.6644 2.254 22.9402 2.34033 22.2235C3.11494 22.2489 3.90205 22.3202 4.69053 22.4373C10.0257 23.2298 15.3379 26.0403 19.6487 30.3511C23.9594 34.6616 26.7699 39.9739 27.5625 45.3091C27.6778 46.0837 27.7489 46.8642 27.7756 47.6469C27.0551 47.7345 26.3308 47.7879 25.6052 47.8068ZM41.1404 41.1404C37.9514 44.3293 34.0459 46.3753 29.9373 47.279C29.9009 46.5126 29.826 45.7486 29.7131 44.9897C28.8524 39.1965 25.8241 33.452 21.1861 28.8139C16.5479 24.1758 10.8033 21.1477 5.01025 20.287C4.2485 20.1735 3.48151 20.0985 2.71221 20.0622L2.70625 20.0671C3.62998 15.8531 5.73584 11.9832 8.85957 8.85947C11.9103 5.80879 15.6166 3.8043 19.5291 2.84502C19.556 3.74346 19.636 4.63952 19.7687 5.52852C20.6292 11.3216 23.6574 17.0662 28.2955 21.7044C32.9336 26.3425 38.6782 29.3706 44.4716 30.2312C45.3632 30.3644 46.2619 30.4445 47.163 30.4711L47.1728 30.4549C46.1936 34.4662 44.1348 38.1462 41.1404 41.1404ZM47.5893 28.305C46.672 28.2958 45.7345 28.2211 44.791 28.081C39.4557 27.2884 34.1434 24.4779 29.8327 20.1672C25.5221 15.8564 22.7115 10.5442 21.919 5.20918C21.7795 4.26982 21.7046 3.33643 21.695 2.42354C22.4166 2.31884 23.1427 2.24855 23.8709 2.21289C23.8692 3.08545 23.9345 3.98125 24.0693 4.88975C24.7939 9.76699 27.3867 14.6469 31.3701 18.6302C31.7945 19.0545 32.4828 19.0545 32.9073 18.6302C33.3317 18.2058 33.3317 17.5175 32.9073 17.0929C29.2514 13.4369 26.8764 8.98965 26.2198 4.57021C26.1004 3.76582 26.0416 2.97529 26.0435 2.20879C31.5361 2.45781 36.9556 4.67432 41.1406 8.85957C45.2051 12.924 47.5471 18.2517 47.802 23.9569C47.0306 23.9586 46.2379 23.9003 45.4299 23.7803C44.8362 23.6921 44.2831 24.1021 44.195 24.6958C44.1067 25.2896 44.5167 25.8424 45.1104 25.9306C46.0083 26.064 46.894 26.1308 47.7569 26.1308C47.771 26.1308 47.7848 26.13 47.7988 26.13C47.7633 26.8579 47.6934 27.5837 47.5893 28.305Z" fill="#F1CDB3"></path>
    <path d="M38.4598 21.4792C38.1716 21.4797 37.8953 21.5942 37.6913 21.7977C37.4878 22.0017 37.3733 22.278 37.3728 22.5661C37.3728 22.852 37.4881 23.1324 37.6913 23.3346C37.8935 23.5368 38.1739 23.653 38.4598 23.653C38.7456 23.653 39.0261 23.5368 39.2282 23.3346C39.4313 23.1303 39.5457 22.8542 39.5467 22.5661C39.5467 22.2803 39.4304 21.9998 39.2282 21.7977C39.0242 21.5942 38.7479 21.4797 38.4598 21.4792Z" fill="#F1CDB3"></path>
  </symbol>
  <symbol fill="none" xmlns="http://www.w3.org/2000/svg" viewBox="0 0 51 50" id="transportation">
    <path d="M46.8371 10.5929H40.9846V10.4246C40.9846 7.39722 38.5217 4.93432 35.4944 4.93432C32.467 4.93432 30.0041 7.39722 30.0041 10.4246V10.5929H23.131C20.8679 10.5929 19.0268 12.4341 19.0268 14.6971V19.3341H12.8716C11.4032 19.3341 10.0981 20.2135 9.5466 21.5745C9.53859 21.5944 9.53117 21.6146 9.52434 21.635L5.97345 32.3908C5.94123 32.4099 5.90011 32.4326 5.84894 32.4582C5.64591 32.5595 5.26613 32.714 4.61261 32.8737C3.57557 33.125 2.6533 33.718 1.99441 34.5573C1.33551 35.3966 0.978354 36.4333 0.980478 37.5004V42.5823C0.980478 44.2839 2.36476 45.6683 4.06632 45.6683L8.41984 45.6684C8.87951 48.1302 11.0429 50 13.6361 50C16.2291 50 18.3925 48.1302 18.8523 45.6685L34.2061 45.6687C34.6659 48.1304 36.8292 50 39.4222 50C42.0152 50 44.1785 48.1305 44.6383 45.6688L47.4031 45.6689C49.5194 45.6689 50.9413 44.247 50.9413 42.1307V16.7334C50.9413 11.1913 48.0711 10.5929 46.8371 10.5929ZM31.9573 10.4246C31.9573 8.47417 33.544 6.88745 35.4944 6.88745C37.4448 6.88745 39.0315 8.47417 39.0315 10.4246V10.5929H31.9573V10.4246ZM11.3678 22.2816C11.4926 21.9861 11.7019 21.7341 11.9694 21.5572C12.2369 21.3803 12.5508 21.2864 12.8715 21.2873H19.0267V32.3555H8.04191L11.3678 22.2816ZM13.6361 48.0469C11.7864 48.0469 10.2815 46.5421 10.2815 44.6923C10.2815 44.6694 10.2827 44.6469 10.2832 44.624C10.2839 44.5892 10.2841 44.5542 10.2859 44.5195C10.2862 44.5141 10.2868 44.5087 10.2871 44.5032C10.3856 42.7412 11.85 41.3377 13.6361 41.3377C15.2523 41.3377 16.6052 42.4868 16.9209 44.0108L16.9223 44.0167C16.9329 44.0684 16.9421 44.1205 16.9503 44.173L16.9519 44.1817C16.9577 44.2199 16.962 44.2585 16.9665 44.2971C16.9686 44.3146 16.9714 44.3319 16.9732 44.3495C16.9762 44.3796 16.9779 44.4102 16.9801 44.4404C16.9821 44.4669 16.9848 44.4931 16.9862 44.5196C16.9875 44.547 16.9875 44.5747 16.9882 44.6022C16.989 44.6322 16.9905 44.662 16.9905 44.6922C16.9907 46.5421 15.4858 48.0469 13.6361 48.0469ZM39.4222 48.0469C37.5725 48.0469 36.0676 46.5421 36.0676 44.6923C36.0676 44.6486 36.0693 44.6053 36.0709 44.562C36.0714 44.548 36.0713 44.5338 36.072 44.5199C36.0737 44.4877 36.0768 44.456 36.0793 44.424C36.0813 44.3993 36.0825 44.3743 36.085 44.3497C36.0861 44.3392 36.0878 44.329 36.0889 44.3186C36.1002 44.2167 36.1156 44.1159 36.1359 44.017C36.1365 44.0141 36.1373 44.0112 36.1379 44.0083C36.4546 42.4855 37.8068 41.3378 39.4222 41.3378C39.8846 41.3378 40.3255 41.4318 40.7267 41.6018C41.9303 42.1118 42.7767 43.3051 42.7767 44.6924C42.7767 46.5421 41.2719 48.0469 39.4222 48.0469ZM47.4031 43.7157L44.6399 43.7156C44.6367 43.6983 44.6325 43.6813 44.6291 43.6641C44.6061 43.5493 44.5796 43.4352 44.5497 43.3221C44.5364 43.2726 44.5223 43.2233 44.5076 43.1742C44.4984 43.1437 44.4894 43.1132 44.4798 43.0829C44.4634 43.0318 44.4462 42.9811 44.4282 42.9306C44.4186 42.9035 44.4095 42.8762 44.3995 42.8493C44.3777 42.7911 44.3548 42.7333 44.3309 42.6759C44.3234 42.6577 44.3166 42.6392 44.3088 42.6211C44.2766 42.5452 44.2426 42.4702 44.2069 42.3959C44.2024 42.3866 44.1975 42.3777 44.193 42.3685C44.1618 42.3047 44.1294 42.2415 44.0958 42.1789C44.0834 42.1559 44.0702 42.1336 44.0575 42.1108C44.0307 42.0625 44.0031 42.0146 43.9748 41.9672C43.9593 41.9415 43.9433 41.9163 43.9274 41.8908C43.8839 41.8205 43.8385 41.7514 43.7914 41.6835C43.745 41.6163 43.6971 41.5502 43.6478 41.4851C43.617 41.4448 43.5856 41.4049 43.5537 41.3654C43.5346 41.3419 43.5159 41.3183 43.4964 41.295C43.4617 41.2536 43.4263 41.2128 43.3903 41.1725C43.3725 41.1525 43.3552 41.1321 43.3372 41.1125C43.2924 41.0637 43.2466 41.0157 43.2 40.9686C43.1899 40.9585 43.1803 40.9478 43.1702 40.9378C43.1126 40.8803 43.0537 40.8242 42.9936 40.7694C42.9808 40.7577 42.9674 40.7467 42.9545 40.735C42.9074 40.693 42.8597 40.6513 42.8111 40.6108C42.7898 40.5931 42.7678 40.5761 42.7462 40.5587C42.7051 40.5254 42.6634 40.4926 42.6213 40.4604C42.5965 40.4417 42.5714 40.4234 42.5463 40.4052C42.4402 40.3273 42.3311 40.2536 42.2193 40.1842C42.1919 40.1671 42.1645 40.1502 42.1368 40.1336C42.0935 40.1077 42.0498 40.0828 42.0057 40.0582C41.9787 40.0431 41.9517 40.0276 41.9244 40.013C41.8765 39.9873 41.828 39.9628 41.7793 39.9386C41.755 39.9265 41.7311 39.9139 41.7067 39.9022C41.6429 39.8718 41.5784 39.8426 41.5134 39.8147C41.5035 39.8104 41.4937 39.8057 41.4836 39.8014C41.4081 39.7694 41.3317 39.7393 41.2547 39.7109C41.2328 39.7028 41.2104 39.6957 41.1882 39.6879C41.133 39.6683 41.0776 39.6491 41.0215 39.6313C40.9921 39.6221 40.9625 39.6137 40.9329 39.6049C40.8832 39.5901 40.8334 39.5756 40.7831 39.5622C40.7508 39.5536 40.7184 39.5458 40.6859 39.5378C40.6038 39.5176 40.5213 39.4994 40.4383 39.4832C40.3892 39.4737 40.3399 39.4648 40.2905 39.4567C40.2566 39.4512 40.2227 39.4455 40.1886 39.4406C40.1373 39.4333 40.0858 39.4268 40.0342 39.421C40.0015 39.4172 39.9689 39.4131 39.936 39.41C39.8789 39.4047 39.8217 39.4003 39.7644 39.3969C39.7364 39.3951 39.7086 39.3926 39.6805 39.3912C39.5945 39.387 39.5083 39.3848 39.4221 39.3847C39.3355 39.3847 39.2494 39.3871 39.1637 39.3912C39.1356 39.3926 39.1078 39.3951 39.0797 39.3969C39.0224 39.4006 38.9652 39.4045 38.9084 39.41C38.8753 39.4132 38.8427 39.4173 38.8099 39.4211C38.7584 39.427 38.7069 39.4333 38.6558 39.4407C38.6216 39.4457 38.5876 39.4513 38.5536 39.4569C38.4702 39.4708 38.3871 39.4865 38.3043 39.5041C38.2557 39.5147 38.2073 39.5259 38.1589 39.5378C38.1261 39.5458 38.0934 39.5538 38.0609 39.5624C38.0111 39.5756 37.9618 39.5899 37.9126 39.6046C37.8825 39.6136 37.8522 39.6221 37.8223 39.6315C37.7676 39.6491 37.7131 39.6675 37.6589 39.6869C37.6357 39.6951 37.6122 39.7026 37.589 39.7112C37.5123 39.7395 37.4363 39.7694 37.3613 39.8012C37.3489 39.8064 37.3368 39.8123 37.3244 39.8177C37.2618 39.8447 37.1997 39.8725 37.1383 39.9018C37.1124 39.9142 37.0872 39.9275 37.0615 39.9403C37.0144 39.9639 36.9673 39.9875 36.921 40.0123C36.8924 40.0276 36.8642 40.0437 36.8359 40.0597C36.7933 40.0835 36.7509 40.1078 36.7089 40.1327C36.6102 40.192 36.5133 40.2543 36.4183 40.3194C36.3788 40.3467 36.3397 40.3745 36.301 40.4029C36.2744 40.4224 36.2476 40.4417 36.2213 40.4616C36.1812 40.4921 36.1418 40.5234 36.1026 40.555C36.079 40.574 36.055 40.5926 36.0317 40.612C35.9866 40.6496 35.9424 40.6884 35.8986 40.7273C35.8823 40.7418 35.8656 40.7558 35.8495 40.7704C35.7902 40.8244 35.7322 40.8797 35.6754 40.9363C35.6611 40.9506 35.6475 40.9656 35.6333 40.9801C35.5912 41.023 35.5494 41.0663 35.5086 41.1107C35.4883 41.133 35.4687 41.1558 35.4488 41.1784C35.4153 41.2162 35.382 41.2541 35.3496 41.2929C35.3285 41.3181 35.308 41.3438 35.2874 41.3695C35.2573 41.4068 35.2276 41.4443 35.1985 41.4824C35.1287 41.5742 35.0619 41.6682 34.998 41.7641C34.9713 41.8042 34.9456 41.8448 34.9201 41.8856C34.9026 41.9136 34.8849 41.9414 34.868 41.9696C34.8417 42.0135 34.8165 42.058 34.7915 42.1027C34.7768 42.1288 34.7617 42.1546 34.7474 42.181C34.7173 42.2367 34.6887 42.2933 34.6607 42.3502C34.6528 42.3662 34.6443 42.3817 34.6366 42.3978C34.6015 42.4709 34.568 42.5447 34.5363 42.6192C34.5266 42.642 34.5179 42.6652 34.5085 42.6882C34.487 42.7408 34.4657 42.7936 34.4458 42.8472C34.4346 42.877 34.4246 42.9073 34.4139 42.9373C34.3971 42.9848 34.3809 43.0325 34.3654 43.0804C34.3549 43.113 34.3453 43.146 34.3354 43.1789C34.3114 43.2592 34.2894 43.34 34.2693 43.4214C34.2577 43.4683 34.2468 43.5156 34.2365 43.5632C34.229 43.5976 34.2215 43.6321 34.2147 43.6668C34.2115 43.6832 34.2075 43.6993 34.2044 43.7157L18.8534 43.7154C18.8502 43.6985 18.8462 43.6818 18.8429 43.6649C18.8364 43.6315 18.8291 43.5984 18.822 43.5653C18.7937 43.4346 18.7603 43.305 18.7219 43.1768C18.7124 43.145 18.703 43.1132 18.6929 43.0815C18.6771 43.0325 18.6605 42.9837 18.6433 42.9352C18.633 42.906 18.6232 42.8768 18.6124 42.8478C18.5921 42.7935 18.5707 42.7396 18.5485 42.686C18.5395 42.664 18.5311 42.6415 18.5217 42.6196C18.4899 42.5449 18.4564 42.4708 18.4211 42.3977C18.414 42.3829 18.4062 42.3686 18.399 42.354C18.3704 42.2957 18.3408 42.2379 18.3101 42.1808C18.2962 42.155 18.2814 42.1297 18.267 42.1042C18.2416 42.059 18.2161 42.0139 18.1895 41.9695C18.1727 41.9415 18.1552 41.9141 18.1379 41.8864C18.1123 41.8453 18.0862 41.8045 18.0595 41.7641C17.9956 41.6683 17.9288 41.5745 17.8591 41.4827C17.8301 41.4446 17.8004 41.4071 17.7703 41.3699C17.7496 41.3442 17.729 41.3183 17.7079 41.2931C17.6755 41.2546 17.6425 41.2166 17.6091 41.179C17.589 41.1563 17.5693 41.1333 17.5489 41.1109C17.5086 41.067 17.4672 41.0241 17.4255 40.9815C17.4109 40.9666 17.3969 40.9512 17.3821 40.9365C17.3254 40.88 17.2675 40.8248 17.2083 40.7709C17.1919 40.7558 17.1747 40.7417 17.1581 40.7268C17.1148 40.688 17.0707 40.6499 17.0261 40.6125C17.0025 40.5929 16.9782 40.574 16.9543 40.5548C16.9155 40.5235 16.8764 40.4924 16.8366 40.4622C16.8101 40.4421 16.7831 40.4226 16.7563 40.403C16.7177 40.3748 16.6788 40.3471 16.6396 40.3199C16.5724 40.2738 16.5042 40.2291 16.435 40.186C16.4063 40.168 16.3774 40.1503 16.3484 40.1329C16.3067 40.1081 16.2646 40.0839 16.2222 40.0602C16.1937 40.0442 16.1653 40.028 16.1364 40.0126C16.0903 39.9881 16.0438 39.9642 15.997 39.9411C15.971 39.9281 15.9453 39.9146 15.9191 39.902C15.8584 39.8732 15.7973 39.8455 15.7357 39.8189C15.7225 39.8132 15.7096 39.8069 15.6963 39.8013C15.6212 39.7696 15.5454 39.7396 15.4689 39.7114C15.4453 39.7027 15.4214 39.6951 15.3977 39.6867C15.3439 39.6675 15.2899 39.6492 15.2356 39.6317C15.2055 39.6222 15.1749 39.6136 15.1446 39.6046C15.0956 39.5899 15.0464 39.5759 14.997 39.5626C14.9643 39.5539 14.9314 39.5459 14.8985 39.5379C14.7682 39.5056 14.6366 39.4786 14.5041 39.457C14.4701 39.4515 14.4362 39.4458 14.4019 39.4408C14.3506 39.4335 14.2992 39.427 14.2477 39.4212C14.215 39.4174 14.1823 39.4133 14.1494 39.41C14.0923 39.4048 14.0351 39.4004 13.9779 39.397C13.9498 39.3952 13.9221 39.3927 13.894 39.3913C13.8079 39.387 13.7217 39.3849 13.6356 39.3848C13.549 39.3848 13.4629 39.3872 13.3772 39.3913C13.349 39.3927 13.3212 39.3952 13.2932 39.397C13.2359 39.4007 13.1786 39.4046 13.1218 39.41C13.0888 39.4133 13.0561 39.4174 13.0233 39.4212C12.9719 39.427 12.9206 39.4335 12.8694 39.4408C12.835 39.4458 12.8009 39.4515 12.7668 39.457C12.6834 39.4707 12.6003 39.4864 12.5177 39.5042C12.4693 39.5146 12.4211 39.5259 12.3731 39.5377C12.34 39.5458 12.3068 39.5539 12.2739 39.5626C12.2249 39.5758 12.1761 39.5897 12.1275 39.6043C12.0968 39.6134 12.0659 39.6222 12.0355 39.6317C11.9818 39.6487 11.9286 39.6673 11.8756 39.6859C11.8511 39.6945 11.8264 39.7024 11.8021 39.7114C11.7257 39.7396 11.6501 39.7693 11.5755 39.8009C11.5604 39.8073 11.5456 39.8144 11.5306 39.821C11.4709 39.8469 11.4115 39.8734 11.353 39.9015C11.3256 39.9145 11.2988 39.9286 11.2717 39.9422C11.2261 39.9648 11.1807 39.988 11.1358 40.0119C11.1061 40.0278 11.0769 40.0445 11.0475 40.061C11.0061 40.0843 10.9648 40.1077 10.924 40.1321C10.8544 40.1738 10.7857 40.2171 10.7179 40.2618C10.6886 40.2811 10.6595 40.3007 10.6306 40.3206C10.5923 40.347 10.5546 40.374 10.517 40.4014C10.4892 40.4217 10.4612 40.4419 10.4337 40.4628C10.3953 40.492 10.3576 40.522 10.32 40.5521C10.2947 40.5724 10.2692 40.5923 10.2444 40.6131C10.2021 40.6482 10.1609 40.6846 10.1197 40.721C10.1006 40.7379 10.0811 40.7543 10.0621 40.7715C10.0036 40.8249 9.94628 40.8795 9.89016 40.9354C9.87277 40.9528 9.85617 40.971 9.83898 40.9886C9.80002 41.0285 9.76125 41.0685 9.72355 41.1097C9.70158 41.1336 9.68049 41.1583 9.659 41.1826C9.62717 41.2186 9.59543 41.2547 9.56467 41.2916C9.5424 41.3181 9.52072 41.3453 9.49904 41.3724C9.47016 41.4082 9.44174 41.4443 9.41379 41.4809C9.36469 41.5454 9.31705 41.611 9.27092 41.6777C9.25064 41.7069 9.23065 41.7363 9.21096 41.7658C9.18527 41.8045 9.16047 41.8436 9.13576 41.8829C9.1174 41.9122 9.09894 41.9413 9.08117 41.971C9.05588 42.0131 9.03176 42.0558 9.00764 42.0986C8.99201 42.1265 8.9759 42.154 8.96066 42.1821C8.93252 42.2348 8.90527 42.2879 8.87892 42.3415C8.86935 42.3606 8.8592 42.3794 8.84992 42.3987C8.81515 42.471 8.78205 42.5441 8.75051 42.6182C8.73976 42.6433 8.73019 42.669 8.71984 42.6944C8.69933 42.7447 8.67892 42.795 8.65998 42.846C8.64836 42.8771 8.63781 42.9087 8.62678 42.9401C8.61057 42.9863 8.59455 43.0325 8.57961 43.0792C8.56887 43.1127 8.5589 43.1465 8.54885 43.1803C8.53527 43.2259 8.52209 43.2716 8.50969 43.3177C8.48795 43.3985 8.46825 43.4798 8.4506 43.5616C8.44299 43.5968 8.43537 43.6318 8.42844 43.6673C8.42531 43.6833 8.4214 43.6991 8.41838 43.7151H4.06632C3.44171 43.7151 2.93361 43.207 2.93361 42.5823V37.5004C2.9323 36.8709 3.14294 36.2594 3.53159 35.7643C3.92024 35.2692 4.46426 34.9194 5.07599 34.7712C5.63253 34.6351 6.11056 34.4801 6.50089 34.3088H41.9689C42.5082 34.3088 42.9455 33.8716 42.9455 33.3322C42.9455 32.7929 42.5082 32.3556 41.9689 32.3556H20.9799V14.6971C20.9799 13.5111 21.945 12.5461 23.131 12.5461H46.837C48.7087 12.5461 48.9881 15.1695 48.9881 16.7334V42.1307C48.9881 43.5099 47.995 43.7157 47.4031 43.7157Z" fill="#F1CDB3"></path>
    <path d="M43.031 20.679C43.0311 19.3969 42.1306 18.3219 40.9292 18.0513C40.9356 17.9838 40.9407 17.9161 40.9426 17.8474C40.965 17.0528 40.6681 16.2973 40.1069 15.7201C39.5361 15.133 38.7389 14.7964 37.9196 14.7964C36.9296 14.7964 36.0478 15.2782 35.4958 16.02C34.9441 15.2782 34.0616 14.7964 33.0693 14.7964C32.2573 14.7964 31.4656 15.1286 30.8973 15.7081C30.333 16.2835 30.0306 17.0403 30.0461 17.8387C30.0474 17.9103 30.0523 17.9811 30.0586 18.0515C28.8577 18.3225 27.9578 19.3972 27.9578 20.679C27.9578 21.7636 28.6025 22.7 29.5285 23.1266C28.8761 23.9338 28.4955 24.9553 28.4955 26.0353C28.4955 28.5857 30.5704 30.6606 33.1208 30.6606C33.9608 30.6606 34.7809 30.431 35.4944 30.0043C36.2118 30.4335 37.0321 30.6603 37.868 30.6606C40.4184 30.6606 42.4933 28.5857 42.4933 26.0353C42.4933 24.9552 42.1127 23.9338 41.4603 23.1266C42.3864 22.7 43.031 21.7636 43.031 20.679ZM37.9196 16.7496C38.2146 16.7496 38.5014 16.8706 38.7066 17.0816C38.8969 17.2774 38.9976 17.5297 38.9903 17.7923C38.9734 18.3911 38.4881 18.8835 37.9083 18.8902C37.7529 18.89 37.5993 18.8566 37.458 18.7921C37.4405 18.784 37.4233 18.7753 37.4057 18.7674C37.3168 18.7205 37.2353 18.6606 37.1639 18.5898C36.9599 18.3873 36.8482 18.1154 36.8494 17.8238C36.8517 17.2315 37.3319 16.7496 37.9196 16.7496ZM32.2916 17.0758C32.3927 16.9721 32.5137 16.8898 32.6473 16.8337C32.7808 16.7777 32.9243 16.7491 33.0692 16.7495C33.6587 16.7495 34.1387 17.2302 34.1394 17.8209C34.1402 17.9649 34.112 18.1076 34.0566 18.2405C34.0012 18.3733 33.9197 18.4938 33.8169 18.5946C33.7471 18.6633 33.6679 18.7217 33.5816 18.7681C33.5497 18.7826 33.5185 18.7981 33.487 18.8132C33.3597 18.8658 33.223 18.892 33.0853 18.8903C32.4975 18.8806 32.0101 18.392 31.9987 17.8011C31.9934 17.5312 32.0975 17.2738 32.2916 17.0758ZM29.9109 20.679C29.9108 20.2705 30.2432 19.9381 30.6516 19.9381C31.0602 19.9381 31.3925 20.2705 31.3925 20.679C31.3925 20.7629 31.3779 20.8432 31.3521 20.9185C31.3277 20.9676 31.3042 21.0172 31.2815 21.0673C31.1508 21.2785 30.9177 21.4199 30.6517 21.4199C30.2432 21.4199 29.9109 21.0875 29.9109 20.679ZM37.868 28.7077C37.2305 28.7074 36.6141 28.4792 36.1301 28.0641C35.9532 27.9121 35.7276 27.8286 35.4944 27.8289C35.2612 27.8287 35.0356 27.9122 34.8587 28.0641C34.3747 28.4792 33.7583 28.7074 33.1208 28.7077C31.6473 28.7077 30.4486 27.5089 30.4486 26.0355C30.4486 24.9186 31.1528 23.9099 32.2008 23.5256C32.3728 23.4626 32.5235 23.3525 32.6358 23.208C32.7482 23.0634 32.8176 22.8901 32.8362 22.708C32.8636 22.4394 32.9314 22.1765 33.0374 21.9283C33.0721 21.8622 33.1047 21.7948 33.134 21.7256C33.3931 21.2376 33.7977 20.8424 34.2916 20.5947C34.334 20.576 34.376 20.5564 34.4176 20.5357C34.7572 20.3873 35.1238 20.311 35.4944 20.3115C35.8761 20.3115 36.2397 20.3911 36.5691 20.5348C36.6107 20.5554 36.6527 20.5749 36.6952 20.5936C37.19 20.8412 37.5953 21.2369 37.8548 21.7256C37.8841 21.7948 37.9167 21.8622 37.9514 21.9283C38.0574 22.1765 38.1252 22.4394 38.1526 22.708C38.1712 22.8901 38.2406 23.0634 38.353 23.208C38.4653 23.3525 38.616 23.4626 38.788 23.5256C39.836 23.91 40.5402 24.9186 40.5402 26.0355C40.5402 27.5088 39.3415 28.7077 37.868 28.7077ZM40.3372 21.4199C40.0712 21.4199 39.8381 21.2785 39.7074 21.0673C39.6847 21.0173 39.6612 20.9677 39.6368 20.9185C39.6102 20.8415 39.5965 20.7606 39.5964 20.679C39.5964 20.2705 39.9287 19.9381 40.3373 19.9381C40.7458 19.9381 41.0781 20.2705 41.0781 20.679C41.078 21.0874 40.7457 21.4199 40.3372 21.4199Z" fill="#F1CDB3"></path>
    <path d="M46.8495 33.1465C46.837 33.084 46.8184 33.0228 46.7939 32.9639C46.7696 32.9048 46.7395 32.8482 46.7041 32.795C46.6689 32.7415 46.6283 32.6917 46.583 32.6465C46.5378 32.6012 46.4881 32.5606 46.4346 32.5254C46.3278 32.4548 46.2085 32.4054 46.083 32.3799C45.9573 32.3545 45.8278 32.3545 45.7021 32.3799C45.6396 32.3927 45.5781 32.4112 45.5186 32.4356C45.46 32.46 45.4033 32.4904 45.3506 32.5254C45.2969 32.5606 45.2471 32.6016 45.2021 32.6465C45.1571 32.6914 45.1161 32.7412 45.0801 32.795C45.0449 32.8477 45.0145 32.9043 44.9912 32.9639C44.9668 33.0225 44.9473 33.084 44.9355 33.1465C44.9228 33.209 44.916 33.2735 44.916 33.3369C44.916 33.4003 44.9228 33.4649 44.9355 33.5284C44.9473 33.5899 44.9668 33.6514 44.9912 33.711C45.0156 33.7696 45.0459 33.8262 45.0811 33.8789C45.1161 33.9327 45.1571 33.9825 45.2021 34.0274C45.2471 34.0723 45.2969 34.1133 45.3506 34.1495C45.4033 34.1846 45.46 34.2139 45.5186 34.2383C45.5781 34.2627 45.6396 34.2823 45.7021 34.294C45.7647 34.3067 45.8292 34.3135 45.8926 34.3135C45.9561 34.3135 46.0206 34.3067 46.083 34.294C46.1455 34.2823 46.207 34.2627 46.2656 34.2383C46.3252 34.2139 46.3818 34.1846 46.4346 34.1495C46.4884 34.1133 46.5382 34.0723 46.583 34.0274C46.6279 33.9825 46.6689 33.9327 46.7041 33.8789C46.7392 33.8262 46.7695 33.7696 46.7939 33.711C46.8184 33.6514 46.8368 33.5899 46.8495 33.5284C46.8623 33.4649 46.869 33.4003 46.869 33.3369C46.869 33.2735 46.8623 33.209 46.8495 33.1465Z" fill="#F1CDB3"></path>
    <path d="M35.4944 0C34.9551 0 34.5178 0.437208 34.5178 0.976564V2.61133C34.5178 3.15069 34.9551 3.58789 35.4944 3.58789C36.0338 3.58789 36.471 3.15059 36.471 2.61133V0.976564C36.471 0.437208 36.0338 0 35.4944 0Z" fill="#F1CDB3"></path>
    <path d="M31.3803 3.79716L30.0172 2.72695C29.9163 2.64775 29.8008 2.58919 29.6773 2.55463C29.5538 2.52006 29.4247 2.51015 29.2974 2.52548C29.1701 2.5408 29.047 2.58106 28.9352 2.64395C28.8235 2.70683 28.7252 2.79112 28.646 2.89199C28.313 3.31621 28.3869 3.93007 28.811 4.26308L30.1741 5.3333C30.3458 5.46852 30.558 5.54196 30.7766 5.5418C30.9246 5.542 31.0708 5.50848 31.204 5.44378C31.3372 5.37907 31.4539 5.28489 31.5453 5.16836C31.8784 4.74404 31.8045 4.13017 31.3803 3.79716Z" fill="#F1CDB3"></path>
    <path d="M42.3429 2.89185C42.0099 2.46763 41.3961 2.3937 40.9717 2.72681L39.6086 3.79702C39.1844 4.13003 39.1104 4.7439 39.4436 5.16822C39.5349 5.28482 39.6516 5.37906 39.7848 5.44379C39.918 5.50852 40.0642 5.54202 40.2123 5.54175C40.4308 5.5419 40.6431 5.46846 40.8147 5.33326L42.1778 4.26304C42.6021 3.93003 42.676 3.31616 42.3429 2.89185Z" fill="#F1CDB3"></path>
  </symbol>
  <symbol fill="none" xmlns="http://www.w3.org/2000/svg" viewBox="0 0 50 50" id="vitamins">
    <path d="M45.259 29.4988C42.5299 28.57 38.9207 28.0585 35.0965 28.0585C34.8574 28.0585 34.6192 28.0604 34.3821 28.0645C30.8245 28.124 27.4925 28.628 24.9339 29.4988C24.5233 29.6378 24.1187 29.7936 23.7209 29.9657V14.3604C23.7209 7.8206 18.4004 2.5 11.8604 2.5C5.32051 2.5 0 7.8206 0 14.3604V35.7718C0 42.3116 5.32051 47.6322 11.8604 47.6322C13.935 47.6322 15.9769 47.0885 17.7656 46.0598C18.8935 45.4111 19.9067 44.578 20.764 43.6048C21.3871 44.4801 22.6209 45.4047 24.934 46.1919C27.6631 47.1207 31.2722 47.6322 35.0964 47.6322C38.9206 47.6322 42.5298 47.1207 45.2589 46.1919C49.1774 44.8583 50 43.1305 50 41.9158V33.7749C50 32.5603 49.1774 30.8324 45.259 29.4988ZM22.1462 33.7749C22.1466 33.7386 22.1498 33.7023 22.156 33.6665L22.1576 33.6568C22.1907 33.4804 22.2969 33.2754 22.4923 33.0532L22.496 33.0491C22.5256 33.0156 22.5579 32.9816 22.5916 32.9474C22.6142 32.9247 22.6367 32.9019 22.6608 32.8793L22.6893 32.8527C22.8529 32.7019 23.0501 32.5503 23.2776 32.4021C23.2815 32.3995 23.2849 32.3964 23.2887 32.3938C23.8226 32.0471 24.565 31.6875 25.5633 31.3478C28.0951 30.4861 31.4808 30.0115 35.0965 30.0115C38.3909 30.0116 41.492 30.4066 43.9325 31.1284L23.0331 34.9797C22.4057 34.5178 22.1473 34.0897 22.1462 33.777V33.7749ZM21.7678 31.0753C21.0149 31.652 20.5953 32.2381 20.3826 32.7818C20.311 32.9646 20.259 33.1546 20.2277 33.3484C20.2134 33.4366 20.2036 33.5254 20.1982 33.6146L20.1966 33.6397C20.1942 33.6854 20.1928 33.7305 20.1928 33.7748V41.1341C18.3574 43.9854 15.2625 45.6791 11.8604 45.6791C6.39756 45.6791 1.95312 41.2347 1.95312 35.7718V26.0427H3.90625V31.3161C3.90625 31.8555 4.34355 32.2927 4.88281 32.2927C5.42207 32.2927 5.85938 31.8555 5.85938 31.3161V26.0427H21.7678V31.0753ZM21.7678 24.0896H5.85938V14.3604C5.85938 11.0515 8.55137 8.35937 11.8604 8.35937C15.1695 8.35937 17.8615 11.0515 17.8615 14.3604C17.8615 14.8998 18.2988 15.337 18.8381 15.337C19.3774 15.337 19.8146 14.8998 19.8146 14.3604C19.8146 9.97451 16.2464 6.40625 11.8604 6.40625C7.47451 6.40625 3.90625 9.97451 3.90625 14.3604V24.0896H1.95312V14.3604C1.95312 8.89756 6.39756 4.45312 11.8604 4.45312C17.3233 4.45312 21.7678 8.89756 21.7678 14.3604V24.0896ZM48.0469 41.9158C48.0469 42.4989 47.152 43.4845 44.6297 44.343C42.0979 45.2046 38.7122 45.6792 35.0965 45.6792C31.4808 45.6792 28.0951 45.2047 25.5633 44.343C23.041 43.4846 22.1461 42.499 22.1461 41.9158V41.4155L22.1462 41.4142V36.7443C22.8302 37.1994 23.737 37.6437 24.934 38.051C27.6631 38.9798 31.2723 39.4913 35.0965 39.4913C38.9207 39.4913 42.5299 38.9798 45.259 38.051C46.456 37.6436 47.3629 37.1994 48.0469 36.7442V41.9158ZM44.6297 36.202C42.0979 37.0636 38.7123 37.5382 35.0965 37.5382C31.7547 37.5382 28.6111 37.132 26.155 36.3904L47.1042 32.53C47.7731 33.0082 48.0469 33.4529 48.0469 33.7749C48.0469 34.358 47.152 35.3436 44.6297 36.202Z" fill="#F1CDB3"></path>
    <path d="M5.57314 34.5017C5.52822 34.4568 5.47851 34.4158 5.4248 34.3806C5.3716 34.3451 5.31501 34.315 5.25585 34.2907C5.19726 34.2663 5.13583 34.2478 5.07333 34.2351C4.94765 34.2097 4.81816 34.2097 4.69247 34.2351C4.62997 34.2478 4.56845 34.2663 4.50888 34.2907C4.45019 34.3152 4.39365 34.3454 4.34091 34.3806C4.2871 34.4158 4.2373 34.4568 4.19238 34.5017C4.14746 34.5466 4.10644 34.5964 4.07128 34.6501C4.03515 34.7029 4.00585 34.7595 3.98144 34.8191C3.95703 34.8777 3.93749 34.9392 3.92587 35.0017C3.91308 35.0642 3.90634 35.1286 3.90634 35.1921C3.90634 35.2566 3.91308 35.32 3.92587 35.3835C3.93749 35.446 3.95703 35.5075 3.98144 35.5661C4.00585 35.6247 4.03515 35.6814 4.07128 35.7351C4.10644 35.7878 4.14746 35.8376 4.19238 35.8835C4.32944 36.0194 4.5033 36.112 4.69247 36.1501C4.75497 36.1628 4.81943 36.1687 4.8829 36.1687C5.01092 36.169 5.13772 36.1438 5.25585 36.0945C5.31501 36.0702 5.3716 36.0401 5.4248 36.0046C5.47851 35.9685 5.52831 35.9284 5.57324 35.8835C5.61826 35.8376 5.65927 35.7878 5.69433 35.7351C5.72949 35.6814 5.75976 35.6247 5.78417 35.5661C5.80859 35.5075 5.82812 35.446 5.84081 35.3835C5.85351 35.32 5.85937 35.2566 5.85937 35.1921C5.85937 34.9353 5.75488 34.6833 5.57314 34.5017Z" fill="#F1CDB3"></path>
  </symbol>
  <symbol viewBox="0 0 30 23" fill="none" xmlns="http://www.w3.org/2000/svg" id="credit-card">
	<path d="M25.9815 23H4.01915C1.80285 23 0 21.2046 0 19.0001V3.9999C0 1.79421 1.80285 0 4.01915 0H25.9808C28.196 0 30 1.79421 30 3.9999V19.0001C30.0006 21.2052 28.1972 23 25.9815 23ZM4.01915 1.14285C2.43563 1.14285 1.14836 2.42396 1.14836 3.9999V19.0001C1.14836 20.5755 2.43563 21.8571 4.01915 21.8571H25.9808C27.5638 21.8571 28.8516 20.5755 28.8516 19.0001V3.9999C28.8516 2.42396 27.5638 1.14285 25.9808 1.14285H4.01915ZM20.7037 3.35993C22.1363 3.35993 23.2977 4.51532 23.2977 5.94153C23.2977 7.36774 22.1368 8.52376 20.7037 8.52376C19.2706 8.52376 18.1097 7.36783 18.1097 5.94153C18.1097 4.51523 19.2712 3.35993 20.7037 3.35993ZM24.3204 3.35993C25.7529 3.35993 26.9151 4.51532 26.9151 5.94153C26.9151 7.36774 25.7536 8.52376 24.3204 8.52376C22.8873 8.52376 21.7264 7.36783 21.7264 5.94153C21.7264 4.51523 22.8879 3.35993 24.3204 3.35993ZM3.0861 16.3339H7.8683V18.0481H3.0861V16.3339ZM9.43467 16.3339H14.2175V18.0481H9.43467V16.3339ZM15.782 16.3339H20.5659V18.0481H15.782V16.3339ZM22.1305 16.3339H26.9144V18.0481H22.1305V16.3339ZM3.0861 3.36046H12.1263V5.07474H3.0861V3.36046ZM3.0861 6.76208H7.86946V8.47637H3.0861V6.76208Z" fill="#292929"/>
  </symbol>
  <symbol viewBox="0 0 22 32" xmlns="http://www.w3.org/2000/svg" id="location">
	<path d="M11 0C4.93474 0 3.05176e-05 4.78519 3.05176e-05 10.6667C3.05176e-05 12.4323 0.455262 14.1829 1.32067 15.7357L10.3985 31.6562C10.5193 31.8685 10.7496 32 11 32C11.2504 32 11.4807 31.8685 11.6016 31.6562L20.6827 15.7304C21.5448 14.1829 22 12.4323 22 10.6666C22 4.78519 17.0653 0 11 0ZM19.4762 15.0905L11 29.9557L2.52717 15.0964C1.7732 13.7435 1.37507 12.2116 1.37507 10.6667C1.37507 5.52019 5.69278 1.33337 11 1.33337C16.3073 1.33337 20.625 5.52025 20.625 10.6667C20.625 12.2116 20.2269 13.7435 19.4762 15.0905Z"/>
	<path d="M11 5.33329C7.9674 5.33329 5.50008 7.72586 5.50008 10.6666C5.50008 13.6074 7.9674 16 11 16C14.0327 16 16.5 13.6074 16.5 10.6667C16.5 7.72592 14.0327 5.33329 11 5.33329ZM11 14.6667C8.72537 14.6667 6.87505 12.8724 6.87505 10.6667C6.87505 8.46092 8.72537 6.66667 11 6.66667C13.2747 6.66667 15.125 8.46092 15.125 10.6667C15.125 12.8724 13.2747 14.6667 11 14.6667Z"/>
  </symbol>
  <symbol viewBox="0 0 40 32" xmlns="http://www.w3.org/2000/svg" id="email">
	<path d="M39.315 3H0.684964C0.5033 3 0.329077 3.07325 0.200621 3.20362C0.0721657 3.334 0 3.51084 0 3.69522V28.3048C0 28.4892 0.0721657 28.666 0.200621 28.7964C0.329077 28.9268 0.5033 29 0.684964 29H39.315C39.4967 29 39.6709 28.9268 39.7994 28.7964C39.9278 28.666 40 28.4892 40 28.3048V3.69522C40 3.51084 39.9278 3.334 39.7994 3.20362C39.6709 3.07325 39.4967 3 39.315 3ZM32.5774 18.0331C32.6846 18.5259 32.7954 19.0355 32.6513 19.2882C32.4966 19.5596 31.9966 19.7173 31.5131 19.8699C31.1316 19.9902 30.7373 20.1147 30.3857 20.3212C30.0461 20.5206 29.7523 20.8001 29.4683 21.0704C29.0772 21.4426 28.7079 21.794 28.374 21.794C28.04 21.794 27.6706 21.4425 27.2797 21.0704C26.9956 20.8001 26.7018 20.5205 26.3622 20.3212C26.0107 20.1147 25.6163 19.9903 25.2348 19.8699C24.7513 19.7173 24.2513 19.5596 24.0967 19.2882C23.9526 19.0355 24.0633 18.5259 24.1705 18.0331C24.2584 17.6285 24.3493 17.2103 24.3493 16.7821C24.3493 16.354 24.2584 15.9356 24.1705 15.5311C24.0633 15.0383 23.9526 14.5288 24.0967 14.2759C24.2513 14.0046 24.7513 13.8468 25.2348 13.6942C25.6163 13.5739 26.0107 13.4494 26.3622 13.243C26.7018 13.0435 26.9956 12.764 27.2797 12.4937C27.6706 12.1216 28.04 11.7701 28.374 11.7701C28.7079 11.7701 29.0773 12.1216 29.4683 12.4937C29.7523 12.764 30.0461 13.0435 30.3857 13.243C30.7373 13.4493 31.1316 13.5738 31.5131 13.6941C31.9966 13.8467 32.4966 14.0045 32.6512 14.2758C32.7954 14.5286 32.6846 15.0381 32.5774 15.5309C32.4895 15.9354 32.3986 16.3537 32.3986 16.7819C32.3986 17.2102 32.4895 17.6286 32.5774 18.0331ZM30.5975 11.6608C30.5345 11.6024 30.4705 11.5416 30.4053 11.4795C29.8904 10.9896 29.2497 10.3798 28.374 10.3798C27.4982 10.3798 26.8575 10.9896 26.3426 11.4795C26.1045 11.7061 25.8796 11.9201 25.6761 12.0396C25.4574 12.168 25.1518 12.2645 24.8281 12.3666C24.1276 12.5876 23.3336 12.8381 22.9109 13.5797C22.5001 14.3004 22.6768 15.1134 22.8328 15.8307C22.9081 16.1777 22.9794 16.5055 22.9794 16.7821C22.9794 17.0587 22.9081 17.3866 22.8328 17.7336C22.6975 18.3556 22.5473 19.0496 22.7775 19.693L19.9997 22.5464L2.32449 4.39044H37.6748L30.5975 11.6608ZM11.7007 16L1.36993 26.6116V5.38812L11.7007 16ZM12.6635 16.989L19.5124 24.0242C19.5761 24.0896 19.6519 24.1416 19.7356 24.177C19.8192 24.2125 19.9089 24.2308 19.9996 24.2308C20.0902 24.2308 20.18 24.2125 20.2636 24.177C20.3472 24.1416 20.4231 24.0896 20.4868 24.0242L23.6841 20.7398C24.044 20.9494 24.4495 21.0781 24.8281 21.1976C25.1518 21.2997 25.4575 21.3962 25.6761 21.5245C25.8796 21.644 26.1044 21.8581 26.3426 22.0846C26.8575 22.5746 27.4982 23.1844 28.374 23.1844C29.2496 23.1844 29.8904 22.5746 30.4053 22.0846C30.6434 21.858 30.8682 21.644 31.0718 21.5244C31.2043 21.4466 31.3691 21.3806 31.5502 21.3179L37.675 27.6094H2.32431L12.6635 16.989ZM32.9664 20.7946C33.3117 20.6108 33.6223 20.3612 33.8371 19.9846C34.2479 19.2639 34.0711 18.4508 33.9151 17.7336C33.8398 17.3866 33.7686 17.0587 33.7686 16.7821C33.7686 16.5055 33.8398 16.1777 33.9151 15.8307C34.0711 15.1134 34.2479 14.3005 33.837 13.5797C33.4142 12.8381 32.6203 12.5876 31.9197 12.3666L31.8559 12.3463L38.6301 5.38738V26.6122L32.9664 20.7946Z"/>
	<path d="M28.374 13.2424C26.451 13.2424 24.8865 14.8302 24.8865 16.782C24.8865 18.7337 26.451 20.3215 28.374 20.3215C30.297 20.3215 31.8614 18.7337 31.8614 16.782C31.8614 14.8302 30.2969 13.2424 28.374 13.2424ZM28.374 18.9311C27.2064 18.9311 26.2564 17.967 26.2564 16.782C26.2564 15.5969 27.2063 14.6328 28.374 14.6328C29.5416 14.6328 30.4915 15.5969 30.4915 16.782C30.4915 17.967 29.5415 18.9311 28.374 18.9311Z"/>
  </symbol>
  <symbol viewBox="0 0 40 32" xmlns="http://www.w3.org/2000/svg" id="phone">
	<path d="M39.9461 8.89543L37.5102 2.9049C37.4685 2.80251 37.4043 2.71139 37.3226 2.63868C37.2408 2.56598 37.1437 2.51367 37.0389 2.48585L34.111 1.70799C25.5388 -0.569376 14.4609 -0.569281 5.88906 1.70799L2.96105 2.48585C2.85626 2.51367 2.75918 2.56598 2.67743 2.63868C2.59568 2.71139 2.53147 2.80251 2.48984 2.9049L0.0539764 8.89543C-0.0131281 9.06038 -0.0178273 9.24503 0.0407965 9.41333L1.01509 12.2089C1.07166 12.3713 1.18339 12.5075 1.32986 12.5925C1.47633 12.6775 1.64776 12.7056 1.8128 12.6717L11.0692 10.7747C11.2084 10.7462 11.3359 10.675 11.4348 10.5706C11.5337 10.4661 11.5993 10.3334 11.623 10.19L12.4245 5.32594C16.8365 4.18994 23.1635 4.18994 27.5753 5.32594L28.3769 10.19C28.4006 10.3335 28.4662 10.4663 28.5651 10.5707C28.664 10.6751 28.7915 10.7463 28.9307 10.7748L38.187 12.6718C38.3521 12.7056 38.5234 12.6774 38.6699 12.5924C38.8164 12.5075 38.9281 12.3714 38.9848 12.209L39.9592 9.41343C40.0178 9.2451 40.0131 9.06043 39.9461 8.89543ZM2.13193 11.1412L1.63183 9.70624L10.5973 7.78606L10.321 9.46295L2.13193 11.1412ZM11.6222 4.0568C11.4935 4.09314 11.3777 4.16636 11.2883 4.26784C11.1989 4.36933 11.1396 4.49486 11.1174 4.62969L10.848 6.26453L1.85991 8.1896L3.65015 3.78707L6.2409 3.09877C14.5991 0.878304 25.4007 0.878208 33.7593 3.09877L36.35 3.78707L38.1403 8.1896L29.1522 6.26453L28.8828 4.62969C28.8606 4.49487 28.8013 4.36936 28.7119 4.26788C28.6224 4.1664 28.5066 4.09318 28.378 4.0568C23.6016 2.70615 16.3984 2.70615 11.6222 4.0568ZM37.8681 11.1412L29.6792 9.46295L29.4028 7.78606L38.3682 9.70624L37.8681 11.1412Z"/>
	<path d="M33.2901 13.1186C33.261 12.9842 33.1948 12.8612 33.0995 12.7643C33.0041 12.6673 32.8836 12.6005 32.7522 12.5717L27.9776 11.526L27.3764 7.51395C27.351 7.34431 27.2672 7.18959 27.1401 7.07781C27.013 6.96603 26.851 6.90458 26.6835 6.90458H24.814V5.96398C24.814 5.56724 24.5002 5.2456 24.1129 5.2456C23.7257 5.2456 23.4119 5.56724 23.4119 5.96398V6.90458H16.5882V5.96398C16.5882 5.56724 16.2744 5.2456 15.8871 5.2456C15.4999 5.2456 15.1861 5.56724 15.1861 5.96398V6.90458H13.3166C13.1491 6.90458 12.9871 6.96603 12.86 7.07781C12.7329 7.18959 12.6491 7.34431 12.6237 7.51395L12.0224 11.526L7.24791 12.5717C7.11654 12.6005 6.996 12.6673 6.90063 12.7643C6.80527 12.8612 6.73908 12.9842 6.70996 13.1186L3.46796 28.0878C3.45692 28.1389 3.45134 28.1911 3.45132 28.2434V31.2816C3.45132 31.4721 3.52519 31.6549 3.65666 31.7896C3.78814 31.9243 3.96645 32 4.15239 32H35.8477C36.0336 32 36.212 31.9243 36.3434 31.7896C36.4749 31.6549 36.5488 31.4721 36.5488 31.2816V28.2434C36.5488 28.1911 36.5432 28.1389 36.5321 28.0878L33.2901 13.1186ZM7.98131 13.8802L12.7885 12.8273C12.9276 12.7968 13.0544 12.7238 13.152 12.6178C13.2496 12.5118 13.3134 12.3779 13.335 12.2338L13.9183 8.34134H26.0819L26.6651 12.2338C26.6867 12.3779 26.7505 12.5118 26.8481 12.6178C26.9457 12.7238 27.0725 12.7968 27.2115 12.8273L32.0189 13.8802L34.9741 27.5251H5.0261L7.98131 13.8802ZM11.7966 28.9618L10.8935 30.5632H9.82782L10.7309 28.9618H11.7966ZM13.416 28.9618H28.6721L27.769 30.5632H12.513L13.416 28.9618ZM4.85345 28.9618H9.11142L8.20836 30.5632H4.85345V28.9618ZM29.3885 30.5632L30.2916 28.9618H35.1466V30.5632H29.3885Z"/>
	<path d="M20 26.1606C24.1492 26.1606 27.5248 22.7016 27.5248 18.45C27.5248 14.1983 24.1492 10.7393 20 10.7393C15.8509 10.7393 12.4753 14.1983 12.4753 18.45C12.4753 22.7016 15.8509 26.1606 20 26.1606ZM20 12.1761C23.3761 12.1761 26.1227 14.9905 26.1227 18.45C26.1227 21.9094 23.3761 24.7238 20 24.7238C16.624 24.7238 13.8774 21.9094 13.8774 18.45C13.8774 14.9905 16.624 12.1761 20 12.1761Z"/>
	<path d="M20 21.1847C21.4717 21.1847 22.6691 19.9578 22.6691 18.4497C22.6691 16.9416 21.4717 15.7147 20 15.7147C18.5283 15.7147 17.3309 16.9416 17.3309 18.4497C17.3309 19.9578 18.5283 21.1847 20 21.1847ZM20 17.1514C20.6987 17.1514 21.267 17.7338 21.267 18.4497C21.267 19.1656 20.6987 19.7479 20 19.7479C19.3014 19.7479 18.733 19.1656 18.733 18.4497C18.733 17.7339 19.3014 17.1514 20 17.1514Z"/>
  </symbol>
  <symbol viewBox="0 0 30 22" xmlns="http://www.w3.org/2000/svg" id="burger">
	<line y1="21" x2="30" y2="21" stroke-width="2"/>
	<line y1="11" x2="30" y2="11" stroke-width="2"/>
	<line y1="1" x2="30" y2="1" stroke-width="2"/>
  </symbol>
</svg>